$MeshFormat
4.1 0 8
$EndMeshFormat
$Entities
9 8 1 0
1 0 0 0 0 
2 1 0 0 0 
3 1 1 0 0 
4 0 1 0 0 
5 0.5 0.5 0 0 
6 0.5 0.8 0 0 
7 0.8 0.5 0 0 
8 0.5 0.2 0 0 
9 0.2 0.5 0 0 
1 0 0 0 1 0 0 0 2 1 -2 
2 1 0 0 1 1 0 0 2 2 -3 
3 0 1 0 1 1 0 0 2 3 -4 
4 0 0 0 0 1 0 1 2 2 4 -1 
5 0.5 0.5 0 0.8 0.8 0 0 2 6 -7 
6 0.5 0.2 0 0.8 0.5 0 0 2 7 -8 
7 0.2 0.2 0 0.5 0.5 0 0 2 8 -9 
8 0.2 0.5 0 0.5 0.8 0 0 2 9 -6 
1 0 0 0 1 1 0 1 3 8 1 2 3 4 -8 -7 -6 -5 
$EndEntities
$Nodes
17 124 1 124
0 1 0 1
1
0 0 0
0 2 0 1
2
1 0 0
0 3 0 1
3
1 1 0
0 4 0 1
4
0 1 0
0 6 0 1
5
0.5 0.8 0
0 7 0 1
6
0.8 0.5 0
0 8 0 1
7
0.5 0.2 0
0 9 0 1
8
0.2 0.5 0
1 1 0 9
9
10
11
12
13
14
15
16
17
0.09999999999981468 0 0
0.1999999999995579 0 0
0.2999999999992664 0 0
0.399999999998975 0 0
0.4999999999986943 0 0
0.5999999999989468 0 0
0.69999999999921 0 0
0.7999999999994734 0 0
0.8999999999997368 0 0
1 2 0 9
18
19
20
21
22
23
24
25
26
1 0.09999999999981468 0
1 0.1999999999995579 0
1 0.2999999999992664 0
1 0.399999999998975 0
1 0.4999999999986943 0
1 0.5999999999989468 0
1 0.69999999999921 0
1 0.7999999999994734 0
1 0.8999999999997368 0
1 3 0 9
27
28
29
30
31
32
33
34
35
0.8999999999995836 1 0
0.7999999999999998 1 0
0.7000000000006934 1 0
0.6000000000013869 1 0
0.5000000000020587 1 0
0.4000000000016644 1 0
0.3000000000012483 1 0
0.2000000000008322 1 0
0.100000000000416 1 0
1 4 0 9
36
37
38
39
40
41
42
43
44
0 0.8999999999995836 0
0 0.7999999999999998 0
0 0.7000000000006934 0
0 0.6000000000013869 0
0 0.5000000000020587 0
0 0.4000000000016644 0
0 0.3000000000012483 0
0 0.2000000000008322 0
0 0.100000000000416 0
1 5 0 4
45
46
47
48
0.5927050984705218 0.7853169548371965 0
0.6763355760905434 0.7427050980198319 0
0.7427050986558278 0.6763355752151701 0
0.7853169549788347 0.5927050980346045 0
1 6 0 4
49
50
51
52
0.7853169548184666 0.4072949014718332 0
0.7427050980568365 0.3236644239603891 0
0.6763355752544515 0.2572949013727118 0
0.592705098063529 0.2146830450305634 0
1 7 0 4
53
54
55
56
0.4072949014491544 0.2146830451889022 0
0.3236644238671261 0.257294902010923 0
0.257294901404011 0.3236644247024689 0
0.2146830450239926 0.4072949019566941 0
1 8 0 4
57
58
59
60
0.2146830451990591 0.5927050985821053 0
0.2572949019780132 0.6763355760875773 0
0.3236644247427818 0.742705098625278 0
0.4072949019360402 0.7853169549692965 0
2 1 0 64
61
62
63
64
65
66
67
68
69
70
71
72
73
74
75
76
77
78
79
80
81
82
83
84
85
86
87
88
89
90
91
92
93
94
95
96
97
98
99
100
101
102
103
104
105
106
107
108
109
110
111
112
113
114
115
116
117
118
119
120
121
122
123
124
0.2288988377185414 0.2289304142580458 0
0.228930414260715 0.7711011622839757 0
0.7710695857610471 0.2288988377407815 0
0.7711011622801732 0.7710695857170158 0
0.1574200431567497 0.0827756206675479 0
0.08277562066900607 0.8425799568456707 0
0.8425799568394172 0.9172243793277591 0
0.9172243793425863 0.1574200431668147 0
0.8300988385504902 0.670069588947675 0
0.6700695889866866 0.1699011614620093 0
0.3299304110168433 0.8300988385391825 0
0.1699011614646073 0.3299304110071953 0
0.3297900157691855 0.1684357057921498 0
0.1684357057728147 0.6702099842332789 0
0.6702099841816732 0.831564294244018 0
0.8315642942688388 0.3297900158100202 0
0.1291318060473629 0.2451816597408437 0
0.2451816597445894 0.8708681939576142 0
0.7548183402596449 0.1291318060537543 0
0.8708681939643697 0.7548183402399777 0
0.8765083480341859 0.5648151782136956 0
0.123491651971889 0.4351848217865359 0
0.5648151782214819 0.1234916519670495 0
0.4351848217681817 0.8765083480314961 0
0.1239968933548783 0.5626011770464423 0
0.876003106657994 0.4373988229755898 0
0.5626011770025188 0.8760031066581092 0
0.437398822964968 0.12399689334749 0
0.2465365678447803 0.1295153583952279 0
0.7534634321464913 0.8704846416063343 0
0.1295153583911582 0.7534634321584153 0
0.8704846416327842 0.2465365678632037 0
0.08296616010940618 0.1590046602741457 0
0.159004660276336 0.9170338398952739 0
0.9170338398983242 0.8409953397159896 0
0.8409953397259075 0.0829661601141828 0
0.3272875677627646 0.08018785474631737 0
0.08018785474374897 0.6727124322400938 0
0.6727124322221849 0.9198121452619858 0
0.9198121452747282 0.3272875677744112 0
0.6732838512442185 0.07996645242797897 0
0.3267161487555945 0.9200335475727695 0
0.9200335475813786 0.6732838512331412 0
0.07996645243158501 0.3267161487564213 0
0.07725869959615464 0.5000000001431604 0
0.9227413004134236 0.4999999998758044 0
0.4999999998817776 0.07725869958794991 0
0.5000000000987063 0.9227413004214233 0
0.2462488357526238 0.05849576676181863 0
0.1689906829753681 0.1690815426671622 0
0.05849576676078264 0.7537511642489746 0
0.1690815426683609 0.8310093170281899 0
0.7537511642417574 0.9415042332392158 0
0.8310093170257551 0.8309184573214154 0
0.9415042332500199 0.2462488357606508 0
0.830918457344394 0.1689906829877474 0
0.06971993361811209 0.06963895680076979 0
0.06963895680128268 0.9302800663826838 0
0.9302800663821778 0.9303610431972087 0
0.9303610432007354 0.06971993362028091 0
0.05727409510565087 0.2500000000010403 0
0.2500000000010402 0.9427259049083239 0
0.7499999999993416 0.0572740950850607 0
0.9427259049392261 0.7499999999993415 0
$EndNodes
$Elements
2 198 1 198
1 4 1 10
1 4 36 
2 36 37 
3 37 38 
4 38 39 
5 39 40 
6 40 41 
7 41 42 
8 42 43 
9 43 44 
10 44 1 
2 1 2 188
11 23 81 106 
12 41 82 105 
13 14 83 107 
14 32 84 108 
15 87 30 108 
16 86 21 106 
17 85 39 105 
18 88 12 107 
19 81 23 103 
20 82 41 104 
21 83 14 101 
22 84 32 102 
23 30 87 99 
24 21 86 100 
25 39 85 98 
26 12 88 97 
27 77 72 104 
28 79 70 101 
29 78 71 102 
30 80 69 103 
31 73 89 97 
32 74 91 98 
33 75 90 99 
34 76 92 100 
35 77 104 121 
36 78 102 122 
37 79 101 123 
38 80 103 124 
39 97 89 109 
40 98 91 111 
41 99 90 113 
42 100 92 115 
43 63 70 79 
44 61 72 77 
45 64 69 80 
46 62 71 78 
47 73 61 89 
48 75 64 90 
49 74 62 91 
50 76 63 92 
51 40 41 105 
52 22 23 106 
53 13 14 107 
54 31 32 108 
55 30 31 108 
56 12 13 107 
57 21 22 106 
58 39 40 105 
59 88 73 97 
60 87 75 99 
61 85 74 98 
62 86 76 100 
63 72 82 104 
64 69 81 103 
65 70 83 101 
66 71 84 102 
67 54 61 73 
68 46 64 75 
69 58 62 74 
70 50 63 76 
71 63 51 70 
72 64 47 69 
73 62 59 71 
74 61 55 72 
75 53 73 88 
76 45 75 87 
77 57 74 85 
78 49 76 86 
79 72 56 82 
80 71 60 84 
81 70 52 83 
82 69 48 81 
83 82 8 85 
84 83 7 88 
85 81 6 86 
86 84 5 87 
87 82 85 105 
88 83 88 107 
89 81 86 106 
90 84 87 108 
91 9 10 65 
92 36 37 66 
93 27 28 67 
94 18 19 68 
95 50 51 63 
96 46 47 64 
97 58 59 62 
98 54 55 61 
99 53 54 73 
100 45 46 75 
101 57 58 74 
102 49 50 76 
103 55 56 72 
104 59 60 71 
105 51 52 70 
106 47 48 69 
107 8 57 85 
108 6 49 86 
109 7 53 88 
110 5 45 87 
111 52 7 83 
112 60 5 84 
113 56 8 82 
114 48 6 81 
115 61 77 110 
116 62 78 112 
117 64 80 114 
118 63 79 116 
119 43 44 93 
120 34 35 94 
121 25 26 95 
122 16 17 96 
123 89 65 109 
124 91 66 111 
125 90 67 113 
126 92 68 115 
127 65 10 109 
128 66 37 111 
129 67 28 113 
130 68 19 115 
131 89 61 110 
132 91 62 112 
133 90 64 114 
134 92 63 116 
135 44 1 117 
136 35 4 118 
137 26 3 119 
138 17 2 120 
139 1 9 117 
140 4 36 118 
141 3 27 119 
142 2 18 120 
143 93 77 121 
144 94 78 122 
145 95 80 124 
146 96 79 123 
147 11 12 97 
148 38 39 98 
149 29 30 99 
150 20 21 100 
151 14 15 101 
152 32 33 102 
153 23 24 103 
154 41 42 104 
155 43 93 121 
156 34 94 122 
157 25 95 124 
158 16 96 123 
159 11 97 109 
160 38 98 111 
161 29 99 113 
162 20 100 115 
163 102 33 122 
164 104 42 121 
165 101 15 123 
166 103 24 124 
167 77 93 110 
168 80 95 114 
169 78 94 112 
170 79 96 116 
171 9 65 117 
172 36 66 118 
173 27 67 119 
174 18 68 120 
175 65 89 110 
176 67 90 114 
177 66 91 112 
178 68 92 116 
179 10 11 109 
180 37 38 111 
181 28 29 113 
182 19 20 115 
183 42 43 121 
184 33 34 122 
185 15 16 123 
186 24 25 124 
187 93 65 110 
188 95 67 114 
189 96 68 116 
190 94 66 112 
191 65 93 117 
192 66 94 118 
193 67 95 119 
194 68 96 120 
195 93 44 117 
196 94 35 118 
197 95 26 119 
198 96 17 120 
$EndElements
