<?xml version="1.0" encoding="UTF-8" standalone="no"?>
<!-- Created with Inkscape (http://www.inkscape.org/) -->

<svg
   width="170.69666mm"
   height="61.070465mm"
   viewBox="0 0 604.83068 216.39141"
   id="svg2"
   version="1.1"
   sodipodi:docname="snapthrough.svg"
   inkscape:version="1.4 (e7c3feb100, 2024-10-09)"
   xmlns:inkscape="http://www.inkscape.org/namespaces/inkscape"
   xmlns:sodipodi="http://sodipodi.sourceforge.net/DTD/sodipodi-0.dtd"
   xmlns="http://www.w3.org/2000/svg"
   xmlns:svg="http://www.w3.org/2000/svg"
   xmlns:rdf="http://www.w3.org/1999/02/22-rdf-syntax-ns#"
   xmlns:cc="http://creativecommons.org/ns#"
   xmlns:dc="http://purl.org/dc/elements/1.1/"
   xmlns:ns1="http://www.iki.fi/pav/software/textext/">
  <sodipodi:namedview
     id="namedview1"
     pagecolor="#ffffff"
     bordercolor="#666666"
     borderopacity="1.0"
     inkscape:showpageshadow="2"
     inkscape:pageopacity="0.0"
     inkscape:pagecheckerboard="0"
     inkscape:deskcolor="#d1d1d1"
     inkscape:document-units="mm"
     showgrid="false"
     inkscape:zoom="0.85561137"
     inkscape:cx="453.47691"
     inkscape:cy="-2.9218873"
     inkscape:window-width="1920"
     inkscape:window-height="1064"
     inkscape:window-x="1920"
     inkscape:window-y="16"
     inkscape:window-maximized="1"
     inkscape:current-layer="svg2" />
  <defs
     id="defs4">
    <marker
       style="overflow:visible"
       id="marker529"
       refX="0"
       refY="0"
       orient="auto-start-reverse"
       markerWidth="1"
       markerHeight="1"
       viewBox="0 0 1 1"
       preserveAspectRatio="xMidYMid">
      <path
         style="fill:context-stroke;fill-rule:evenodd;stroke:none"
         d="M 0,0 5,-5 -12.5,0 5,5 Z"
         transform="scale(-0.5)"
         id="path529" />
    </marker>
    <marker
       style="overflow:visible"
       id="Arrow1L"
       refX="0"
       refY="0"
       orient="auto-start-reverse"
       markerWidth="8.75"
       markerHeight="5"
       viewBox="0 0 8.75 5"
       preserveAspectRatio="xMidYMid">
      <path
         style="fill:context-stroke;fill-rule:evenodd;stroke:none"
         d="M 0,0 5,-5 -12.5,0 5,5 Z"
         id="arrow1L"
         transform="scale(-0.5)" />
    </marker>
    <marker
       style="overflow:visible"
       id="marker1276"
       refX="0"
       refY="0"
       orient="auto-start-reverse"
       markerWidth="8.75"
       markerHeight="5"
       viewBox="0 0 8.75 5"
       preserveAspectRatio="xMidYMid">
      <path
         style="fill:context-stroke;fill-rule:evenodd;stroke:none"
         d="M 0,0 5,-5 -12.5,0 5,5 Z"
         id="path1274"
         transform="scale(-0.5)" />
    </marker>
  </defs>
  <metadata
     id="metadata7">
    <rdf:RDF>
      <cc:Work
         rdf:about="">
        <dc:format>image/svg+xml</dc:format>
        <dc:type
           rdf:resource="http://purl.org/dc/dcmitype/StillImage" />
      </cc:Work>
    </rdf:RDF>
  </metadata>
  <path
     style="fill:none;stroke:#000000;stroke-width:1.77188;stroke-linecap:butt;stroke-linejoin:miter;stroke-dasharray:none;stroke-opacity:1;marker-start:url(#Arrow1L);marker-end:url(#marker1276)"
     d="M 83.439,14.5168 V 192.936 l 195.8453,0.2124"
     id="path141" />
  <path
     style="fill:none;stroke:#000000;stroke-width:0.771102;stroke-linecap:butt;stroke-linejoin:miter;stroke-dasharray:6.16882, 6.16882;stroke-dashoffset:0;stroke-opacity:1"
     d="m 83.2319,40.2991 195.3597,1.0033"
     id="path143" />
  <path
     style="fill:none;stroke:#000000;stroke-width:0.769889px;stroke-linecap:butt;stroke-linejoin:miter;stroke-opacity:1"
     d="m 108.5599,107.1434 37.7687,-66.3427 v 24.7631 l 44.8225,-24.7631 v 15.75 l 50.6822,9.4505"
     id="path144" />
  <path
     style="fill:none;stroke:#000000;stroke-width:0.769889px;stroke-linecap:butt;stroke-linejoin:miter;stroke-dasharray:6.1591, 3.07955;stroke-dashoffset:0;stroke-opacity:1"
     d="m 241.8333,66.0012 30.2154,5.634"
     id="path145" />
  <path
     style="fill:none;stroke:#000000;stroke-width:0.937499px;stroke-linecap:butt;stroke-linejoin:miter;stroke-opacity:1"
     d="M 62.9265,107.1571 V 40.542"
     id="path146" />
  <path
     style="fill:none;stroke:#000000;stroke-width:0.937499px;stroke-linecap:butt;stroke-linejoin:miter;stroke-opacity:1"
     d="m 57.9299,107.1571 h 9.9932"
     id="path147" />
  <path
     style="fill:none;stroke:#000000;stroke-width:0.937499px;stroke-linecap:butt;stroke-linejoin:miter;stroke-opacity:1"
     d="m 57.4611,40.542 h 9.9933"
     id="path148" />
  <g
     transform="matrix(2.38517,0,0,2.38517,42.9905,9e-4)"
     ns1:version="1.9.0"
     ns1:texconverter="pdflatex"
     ns1:pdfconverter="inkscape"
     ns1:text="$\\mathbf{f}_\\mathrm{int}$"
     ns1:preamble="/home/iuribarcelos/.config/inkscape/extensions/textext/default_packages.tex"
     ns1:scale="1.7888804714379716"
     ns1:alignment="middle center"
     ns1:stroke-to-path="0"
     ns1:inkscapeversion="1.3.2"
     id="g163"
     ns1:jacobian_sqrt="2.38517">
    <defs
       id="id-bb573a99-9dd5-4dc2-8dc6-b75ca29273d5" />
    <g
       fill="#000000"
       fill-opacity="1"
       id="id-9ac58d51-9137-47fc-a25d-35eebbecb970"
       transform="translate(-149.134,-127.781)">
      <g
         transform="translate(148.712,134.765)"
         id="g3146">
        <path
           d="m 1.171875,-4.421875 h -0.75 v 0.46875 h 0.75 v 3.484375 h -0.6875 V 0 c 0.34375,-0.015625 0.796875,-0.03125 1.25,-0.03125 0.375,0 1.015625,0 1.375,0.03125 V -0.46875 H 2.25 v -3.484375 h 1.140625 v -0.46875 H 2.1875 V -5.4375 c 0,-1.09375 0.75,-1.1875 1,-1.1875 0.046875,0 0.109375,0 0.171875,0.03125 C 3.203125,-6.484375 3.125,-6.296875 3.125,-6.109375 3.125,-5.6875 3.484375,-5.5 3.734375,-5.5 c 0.296875,0 0.625,-0.203125 0.625,-0.609375 0,-0.421875 -0.359375,-0.875 -1.140625,-0.875 -0.96875,0 -2.046875,0.421875 -2.046875,1.546875 z m 0,0"
           id="id-e0a644a6-9638-4f72-afa2-124772ac6cc2" />
      </g>
    </g>
    <g
       fill="#000000"
       fill-opacity="1"
       id="id-9f882821-1563-43fd-b5e9-8fadf71358ca"
       transform="translate(-149.134,-127.781)">
      <g
         transform="translate(152.213,136.259)"
         id="g9775">
        <path
           d="m 1.46875,-4.296875 c 0,-0.203125 -0.171875,-0.40625 -0.40625,-0.40625 -0.203125,0 -0.390625,0.171875 -0.390625,0.40625 0,0.25 0.203125,0.40625 0.390625,0.40625 0.234375,0 0.40625,-0.171875 0.40625,-0.40625 z M 0.40625,-3 v 0.25 c 0.4375,0 0.5,0.046875 0.5,0.390625 v 1.8125 C 0.90625,-0.25 0.84375,-0.25 0.390625,-0.25 V 0 c 0.015625,0 0.5,-0.03125 0.78125,-0.03125 0.25,0 0.5,0.015625 0.734375,0.03125 V -0.25 C 1.5,-0.25 1.4375,-0.25 1.4375,-0.546875 v -2.53125 z m 0,0"
           id="id-33fd489a-9dbd-4d74-a444-4fa2be7ff4f8" />
      </g>
      <g
         transform="translate(154.468,136.259)"
         id="g7240">
        <path
           d="m 3.59375,-2.109375 c 0,-0.609375 -0.296875,-0.96875 -1.046875,-0.96875 -0.578125,0 -0.9375,0.3125 -1.140625,0.6875 v -0.6875 L 0.375,-3 v 0.25 c 0.46875,0 0.53125,0.046875 0.53125,0.390625 v 1.8125 C 0.90625,-0.25 0.828125,-0.25 0.375,-0.25 V 0 C 0.390625,0 0.875,-0.03125 1.171875,-0.03125 1.421875,-0.03125 1.90625,0 1.96875,0 v -0.25 c -0.453125,0 -0.515625,0 -0.515625,-0.296875 V -1.8125 c 0,-0.71875 0.578125,-1.0625 1.03125,-1.0625 0.484375,0 0.546875,0.375 0.546875,0.734375 v 1.59375 C 3.03125,-0.25 2.96875,-0.25 2.515625,-0.25 V 0 C 2.53125,0 3.015625,-0.03125 3.3125,-0.03125 3.5625,-0.03125 4.046875,0 4.109375,0 v -0.25 c -0.453125,0 -0.515625,0 -0.515625,-0.296875 z m 0,0"
           id="id-e898fba3-caa3-4763-82ae-2bf540af599c" />
      </g>
    </g>
    <g
       fill="#000000"
       fill-opacity="1"
       id="id-0acf0260-7b8e-4f58-a661-cb2f05950063"
       transform="translate(-149.134,-127.781)">
      <g
         transform="translate(158.653,136.259)"
         id="g3702">
        <path
           d="M 1.40625,-2.75 H 2.484375 V -3 H 1.40625 v -1.28125 h -0.25 c 0,0.625 -0.28125,1.3125 -0.953125,1.328125 V -2.75 H 0.84375 v 1.875 c 0,0.78125 0.59375,0.9375 0.984375,0.9375 0.46875,0 0.78125,-0.390625 0.78125,-0.9375 V -1.265625 H 2.375 v 0.375 c 0,0.484375 -0.21875,0.734375 -0.5,0.734375 -0.46875,0 -0.46875,-0.578125 -0.46875,-0.703125 z m 0,0"
           id="id-dd57beaf-6288-436e-afef-272af1313853" />
      </g>
    </g>
  </g>
  <g
     transform="matrix(2.38517,0,0,2.38517,284.0905,205.4709)"
     ns1:version="1.9.0"
     ns1:texconverter="pdflatex"
     ns1:pdfconverter="inkscape"
     ns1:text="$\\mathbf{a}$"
     ns1:preamble="/home/iuribarcelos/.config/inkscape/extensions/textext/default_packages.tex"
     ns1:scale="1.7888804714379716"
     ns1:alignment="middle center"
     ns1:stroke-to-path="0"
     ns1:inkscapeversion="1.3.2"
     id="g168"
     ns1:jacobian_sqrt="2.38517">
    <defs
       id="id-3f6ef251-4e8d-46e0-bfc7-3635e6a138ad" />
    <g
       fill="#000000"
       fill-opacity="1"
       id="id-5ccdada9-6366-4d52-aec8-3eb92039b3ac"
       transform="translate(-149.025,-130.249)">
      <g
         transform="translate(148.712,134.765)"
         id="g4593">
        <path
           d="m 3.734375,-0.765625 c 0,0.3125 0,0.765625 1.03125,0.765625 H 5.25 C 5.4375,0 5.5625,0 5.5625,-0.234375 5.5625,-0.46875 5.4375,-0.46875 5.296875,-0.46875 4.6875,-0.484375 4.6875,-0.609375 4.6875,-0.84375 v -2.140625 c 0,-0.890625 -0.703125,-1.53125 -2.1875,-1.53125 -0.5625,0 -1.78125,0.046875 -1.78125,0.921875 0,0.4375 0.34375,0.625 0.609375,0.625 0.3125,0 0.640625,-0.21875 0.640625,-0.625 0,-0.296875 -0.1875,-0.46875 -0.21875,-0.5 0.28125,-0.046875 0.59375,-0.0625 0.71875,-0.0625 0.734375,0 1.09375,0.421875 1.09375,1.171875 v 0.34375 c -0.71875,0.03125 -3.25,0.125 -3.25,1.5625 0,0.953125 1.25,1.140625 1.9375,1.140625 0.796875,0 1.265625,-0.40625 1.484375,-0.828125 z M 3.5625,-2.328125 v 0.9375 c 0,0.96875 -0.921875,1.09375 -1.171875,1.09375 -0.5,0 -0.90625,-0.34375 -0.90625,-0.796875 0,-1.0625 1.578125,-1.203125 2.078125,-1.234375 z m 0,0"
           id="id-01f48490-4f4c-4a93-9396-6dc22f52961d" />
      </g>
    </g>
  </g>
  <g
     transform="matrix(2.38517,0,0,2.38517,5e-4,64.3709)"
     ns1:version="1.9.0"
     ns1:texconverter="pdflatex"
     ns1:pdfconverter="inkscape"
     ns1:text="$\\Delta \\mathbf{f}_\\mathrm{ext}$"
     ns1:preamble="/home/iuribarcelos/.config/inkscape/extensions/textext/default_packages.tex"
     ns1:scale="1.7888804714379716"
     ns1:alignment="middle center"
     ns1:stroke-to-path="0"
     ns1:inkscapeversion="1.3.2"
     id="g183"
     ns1:jacobian_sqrt="2.38517">
    <defs
       id="id-45813178-6695-4ec7-af77-fda51c047622" />
    <g
       fill="#000000"
       fill-opacity="1"
       id="id-89f34fea-b544-49e7-89fb-98a9cbcb5dcb"
       transform="translate(-149.181,-127.624)">
      <g
         transform="translate(148.712,134.765)"
         id="g5314">
        <path
           d="m 4.40625,-6.953125 c -0.0625,-0.140625 -0.09375,-0.1875 -0.265625,-0.1875 -0.15625,0 -0.1875,0.046875 -0.25,0.1875 l -3.375,6.75 C 0.46875,-0.109375 0.46875,-0.09375 0.46875,-0.078125 0.46875,0 0.53125,0 0.6875,0 h 6.921875 c 0.15625,0 0.21875,0 0.21875,-0.078125 0,-0.015625 0,-0.03125 -0.046875,-0.125 z m -0.578125,0.8125 2.6875,5.390625 h -5.375 z m 0,0"
           id="id-8beda16c-1910-49a6-b17a-99cd14fc6658" />
      </g>
    </g>
    <g
       fill="#000000"
       fill-opacity="1"
       id="id-5453c40a-4958-4bca-8c9f-cda93f7c4cce"
       transform="translate(-149.181,-127.624)">
      <g
         transform="translate(157.015,134.765)"
         id="g8247">
        <path
           d="m 1.171875,-4.421875 h -0.75 v 0.46875 h 0.75 v 3.484375 h -0.6875 V 0 c 0.34375,-0.015625 0.796875,-0.03125 1.25,-0.03125 0.375,0 1.015625,0 1.375,0.03125 V -0.46875 H 2.25 v -3.484375 h 1.140625 v -0.46875 H 2.1875 V -5.4375 c 0,-1.09375 0.75,-1.1875 1,-1.1875 0.046875,0 0.109375,0 0.171875,0.03125 C 3.203125,-6.484375 3.125,-6.296875 3.125,-6.109375 3.125,-5.6875 3.484375,-5.5 3.734375,-5.5 c 0.296875,0 0.625,-0.203125 0.625,-0.609375 0,-0.421875 -0.359375,-0.875 -1.140625,-0.875 -0.96875,0 -2.046875,0.421875 -2.046875,1.546875 z m 0,0"
           id="id-ff6e245a-f1a1-4ceb-8173-25a22287cae7" />
      </g>
    </g>
    <g
       fill="#000000"
       fill-opacity="1"
       id="id-c7dc3ebf-927c-4ef9-9507-2dd63220d1c2"
       transform="translate(-149.181,-127.624)">
      <g
         transform="translate(160.515,136.259)"
         id="g1435">
        <path
           d="m 3.0625,-1.59375 c 0.15625,0 0.203125,0 0.203125,-0.140625 0,-0.625 -0.34375,-1.375 -1.390625,-1.375 -0.90625,0 -1.609375,0.71875 -1.609375,1.578125 0,0.890625 0.78125,1.59375 1.703125,1.59375 0.9375,0 1.296875,-0.75 1.296875,-0.90625 0,-0.015625 -0.015625,-0.09375 -0.125,-0.09375 -0.09375,0 -0.109375,0.046875 -0.125,0.109375 -0.21875,0.5625 -0.75,0.671875 -1,0.671875 C 1.6875,-0.15625 1.375,-0.296875 1.171875,-0.5625 0.90625,-0.890625 0.90625,-1.3125 0.90625,-1.59375 Z M 0.90625,-1.765625 C 0.984375,-2.75 1.609375,-2.90625 1.875,-2.90625 c 0.859375,0 0.890625,0.96875 0.90625,1.140625 z m 0,0"
           id="id-16e0a1e7-c700-407e-9158-49398316bac1" />
      </g>
      <g
         transform="translate(164.057,136.259)"
         id="g4910">
        <path
           d="m 2.359375,-1.5625 c 0,0 -0.046875,-0.0625 -0.046875,-0.0625 0,-0.03125 0.453125,-0.515625 0.515625,-0.578125 C 3.078125,-2.484375 3.3125,-2.75 3.875,-2.75 V -3 C 3.671875,-2.984375 3.46875,-2.96875 3.28125,-2.96875 3.078125,-2.96875 2.796875,-2.984375 2.59375,-3 v 0.25 c 0.109375,0.015625 0.140625,0.09375 0.140625,0.15625 0,0.015625 0,0.125 -0.109375,0.234375 L 2.140625,-1.8125 1.5625,-2.46875 C 1.484375,-2.546875 1.484375,-2.578125 1.484375,-2.609375 c 0,-0.09375 0.09375,-0.140625 0.1875,-0.140625 V -3 c -0.25,0.015625 -0.515625,0.03125 -0.78125,0.03125 C 0.6875,-2.96875 0.421875,-2.984375 0.21875,-3 v 0.25 c 0.3125,0 0.5,0 0.6875,0.203125 l 0.859375,1 c 0.015625,0.015625 0.0625,0.0625 0.0625,0.078125 0,0.015625 -0.53125,0.59375 -0.59375,0.671875 -0.265625,0.28125 -0.5,0.53125 -1.046875,0.546875 V 0 C 0.390625,-0.015625 0.546875,-0.03125 0.765625,-0.03125 0.96875,-0.03125 1.25,-0.015625 1.453125,0 V -0.25 C 1.375,-0.265625 1.3125,-0.3125 1.3125,-0.40625 1.3125,-0.546875 1.390625,-0.640625 1.5,-0.75 L 2,-1.296875 2.59375,-0.59375 c 0.140625,0.140625 0.140625,0.15625 0.140625,0.203125 0,0.125 -0.15625,0.140625 -0.1875,0.140625 V 0 c 0.0625,0 0.5625,-0.03125 0.78125,-0.03125 C 3.546875,-0.03125 3.78125,-0.015625 4,0 v -0.25 c -0.46875,0 -0.515625,-0.046875 -0.6875,-0.21875 z m 0,0"
           id="id-052584e4-5346-4ac4-a408-89108d121628" />
      </g>
      <g
         transform="translate(168.243,136.259)"
         id="g496">
        <path
           d="M 1.40625,-2.75 H 2.484375 V -3 H 1.40625 v -1.28125 h -0.25 c 0,0.625 -0.28125,1.3125 -0.953125,1.328125 V -2.75 H 0.84375 v 1.875 c 0,0.78125 0.59375,0.9375 0.984375,0.9375 0.46875,0 0.78125,-0.390625 0.78125,-0.9375 V -1.265625 H 2.375 v 0.375 c 0,0.484375 -0.21875,0.734375 -0.5,0.734375 -0.46875,0 -0.46875,-0.578125 -0.46875,-0.703125 z m 0,0"
           id="id-f78b523a-7bc0-49cc-971a-5c945bceac07" />
      </g>
    </g>
  </g>
  <path
     style="fill:none;stroke:#000000;stroke-width:1.77165;stroke-linecap:butt;stroke-linejoin:miter;stroke-dasharray:none;stroke-opacity:1;marker-start:url(#Arrow1L);marker-end:url(#marker1276)"
     d="M 391.6581,14.5168 V 192.936 l 195.8453,0.2124"
     id="path487" />
  <path
     style="fill:none;stroke:#000000;stroke-width:0.771102;stroke-linecap:butt;stroke-linejoin:miter;stroke-dasharray:6.16882, 6.16882;stroke-dashoffset:0;stroke-opacity:0.501821"
     d="m 391.451,40.2991 195.3597,1.0033"
     id="path489" />
  <circle
     style="fill:#00b8c8;fill-opacity:0.495258;stroke:none;stroke-width:1.75178;stroke-linejoin:bevel;stroke-miterlimit:3.9;stroke-dasharray:13.9922, 6.99608;stroke-dashoffset:0;stroke-opacity:1"
     id="circle494"
     cx="452.46408"
     cy="54.212639"
     r="7.3475151" />
  <g
     transform="matrix(2.38517,0,0,2.38517,351.2096,9e-4)"
     ns1:version="1.9.0"
     ns1:texconverter="pdflatex"
     ns1:pdfconverter="inkscape"
     ns1:text="$\\mathbf{f}_\\mathrm{int}$"
     ns1:preamble="/home/iuribarcelos/.config/inkscape/extensions/textext/default_packages.tex"
     ns1:scale="1.7888804714379716"
     ns1:alignment="middle center"
     ns1:stroke-to-path="0"
     ns1:inkscapeversion="1.3.2"
     id="g508"
     ns1:jacobian_sqrt="2.38517">
    <defs
       id="defs500" />
    <g
       fill="#000000"
       fill-opacity="1"
       id="g502"
       transform="translate(-149.134,-127.781)">
      <g
         transform="translate(148.712,134.765)"
         id="g501">
        <path
           d="m 1.171875,-4.421875 h -0.75 v 0.46875 h 0.75 v 3.484375 h -0.6875 V 0 c 0.34375,-0.015625 0.796875,-0.03125 1.25,-0.03125 0.375,0 1.015625,0 1.375,0.03125 V -0.46875 H 2.25 v -3.484375 h 1.140625 v -0.46875 H 2.1875 V -5.4375 c 0,-1.09375 0.75,-1.1875 1,-1.1875 0.046875,0 0.109375,0 0.171875,0.03125 C 3.203125,-6.484375 3.125,-6.296875 3.125,-6.109375 3.125,-5.6875 3.484375,-5.5 3.734375,-5.5 c 0.296875,0 0.625,-0.203125 0.625,-0.609375 0,-0.421875 -0.359375,-0.875 -1.140625,-0.875 -0.96875,0 -2.046875,0.421875 -2.046875,1.546875 z m 0,0"
           id="path500" />
      </g>
    </g>
    <g
       fill="#000000"
       fill-opacity="1"
       id="g505"
       transform="translate(-149.134,-127.781)">
      <g
         transform="translate(152.213,136.259)"
         id="g503">
        <path
           d="m 1.46875,-4.296875 c 0,-0.203125 -0.171875,-0.40625 -0.40625,-0.40625 -0.203125,0 -0.390625,0.171875 -0.390625,0.40625 0,0.25 0.203125,0.40625 0.390625,0.40625 0.234375,0 0.40625,-0.171875 0.40625,-0.40625 z M 0.40625,-3 v 0.25 c 0.4375,0 0.5,0.046875 0.5,0.390625 v 1.8125 C 0.90625,-0.25 0.84375,-0.25 0.390625,-0.25 V 0 c 0.015625,0 0.5,-0.03125 0.78125,-0.03125 0.25,0 0.5,0.015625 0.734375,0.03125 V -0.25 C 1.5,-0.25 1.4375,-0.25 1.4375,-0.546875 v -2.53125 z m 0,0"
           id="path502" />
      </g>
      <g
         transform="translate(154.468,136.259)"
         id="g504">
        <path
           d="m 3.59375,-2.109375 c 0,-0.609375 -0.296875,-0.96875 -1.046875,-0.96875 -0.578125,0 -0.9375,0.3125 -1.140625,0.6875 v -0.6875 L 0.375,-3 v 0.25 c 0.46875,0 0.53125,0.046875 0.53125,0.390625 v 1.8125 C 0.90625,-0.25 0.828125,-0.25 0.375,-0.25 V 0 C 0.390625,0 0.875,-0.03125 1.171875,-0.03125 1.421875,-0.03125 1.90625,0 1.96875,0 v -0.25 c -0.453125,0 -0.515625,0 -0.515625,-0.296875 V -1.8125 c 0,-0.71875 0.578125,-1.0625 1.03125,-1.0625 0.484375,0 0.546875,0.375 0.546875,0.734375 v 1.59375 C 3.03125,-0.25 2.96875,-0.25 2.515625,-0.25 V 0 C 2.53125,0 3.015625,-0.03125 3.3125,-0.03125 3.5625,-0.03125 4.046875,0 4.109375,0 v -0.25 c -0.453125,0 -0.515625,0 -0.515625,-0.296875 z m 0,0"
           id="path503" />
      </g>
    </g>
    <g
       fill="#000000"
       fill-opacity="1"
       id="g507"
       transform="translate(-149.134,-127.781)">
      <g
         transform="translate(158.653,136.259)"
         id="g506">
        <path
           d="M 1.40625,-2.75 H 2.484375 V -3 H 1.40625 v -1.28125 h -0.25 c 0,0.625 -0.28125,1.3125 -0.953125,1.328125 V -2.75 H 0.84375 v 1.875 c 0,0.78125 0.59375,0.9375 0.984375,0.9375 0.46875,0 0.78125,-0.390625 0.78125,-0.9375 V -1.265625 H 2.375 v 0.375 c 0,0.484375 -0.21875,0.734375 -0.5,0.734375 -0.46875,0 -0.46875,-0.578125 -0.46875,-0.703125 z m 0,0"
           id="path505" />
      </g>
    </g>
  </g>
  <g
     transform="matrix(2.38517,0,0,2.38517,592.3096,205.4709)"
     ns1:version="1.9.0"
     ns1:texconverter="pdflatex"
     ns1:pdfconverter="inkscape"
     ns1:text="$\\mathbf{a}$"
     ns1:preamble="/home/iuribarcelos/.config/inkscape/extensions/textext/default_packages.tex"
     ns1:scale="1.7888804714379716"
     ns1:alignment="middle center"
     ns1:stroke-to-path="0"
     ns1:inkscapeversion="1.3.2"
     id="g513"
     ns1:jacobian_sqrt="2.38517">
    <defs
       id="defs510" />
    <g
       fill="#000000"
       fill-opacity="1"
       id="g512"
       transform="translate(-149.025,-130.249)">
      <g
         transform="translate(148.712,134.765)"
         id="g511">
        <path
           d="m 3.734375,-0.765625 c 0,0.3125 0,0.765625 1.03125,0.765625 H 5.25 C 5.4375,0 5.5625,0 5.5625,-0.234375 5.5625,-0.46875 5.4375,-0.46875 5.296875,-0.46875 4.6875,-0.484375 4.6875,-0.609375 4.6875,-0.84375 v -2.140625 c 0,-0.890625 -0.703125,-1.53125 -2.1875,-1.53125 -0.5625,0 -1.78125,0.046875 -1.78125,0.921875 0,0.4375 0.34375,0.625 0.609375,0.625 0.3125,0 0.640625,-0.21875 0.640625,-0.625 0,-0.296875 -0.1875,-0.46875 -0.21875,-0.5 0.28125,-0.046875 0.59375,-0.0625 0.71875,-0.0625 0.734375,0 1.09375,0.421875 1.09375,1.171875 v 0.34375 c -0.71875,0.03125 -3.25,0.125 -3.25,1.5625 0,0.953125 1.25,1.140625 1.9375,1.140625 0.796875,0 1.265625,-0.40625 1.484375,-0.828125 z M 3.5625,-2.328125 v 0.9375 c 0,0.96875 -0.921875,1.09375 -1.171875,1.09375 -0.5,0 -0.90625,-0.34375 -0.90625,-0.796875 0,-1.0625 1.578125,-1.203125 2.078125,-1.234375 z m 0,0"
           id="path510" />
      </g>
    </g>
  </g>
  <path
     style="fill:none;stroke:#6f1d77;stroke-width:0.9375px;stroke-linecap:butt;stroke-linejoin:miter;stroke-opacity:1;marker-end:url(#marker529)"
     d="M 452.4641,54.2126 566.996,41.2006"
     id="path528" />
  <circle
     style="fill:#00b8c8;fill-opacity:1;stroke:none;stroke-width:1.75178;stroke-linejoin:bevel;stroke-miterlimit:3.9;stroke-dasharray:13.9922, 6.99608;stroke-dashoffset:0;stroke-opacity:1"
     id="circle529"
     cx="581.61713"
     cy="40.790154"
     r="7.3475151" />
  <g
     transform="matrix(1.42633,-0.157814,0.157814,1.42633,477.2905,54.1009)"
     ns1:version="1.9.0"
     ns1:texconverter="pdflatex"
     ns1:pdfconverter="inkscape"
     ns1:text="$\\text{snap-through}$"
     ns1:preamble="/home/iuribarcelos/.config/inkscape/extensions/textext/default_packages.tex"
     ns1:scale="1.0762728934250292"
     ns1:alignment="middle center"
     ns1:stroke-to-path="0"
     ns1:inkscapeversion="1.3.2"
     id="g577"
     ns1:jacobian_sqrt="1.4350339813035788"
     style="fill:#6f1d77;fill-opacity:1;stroke-width:0;stroke-opacity:1">
    <defs
       id="id-abf94910-ce6d-42eb-93ed-7004682ffb2f"
       style="fill:#6f1d77;fill-opacity:1;stroke-width:0;stroke-opacity:1" />
    <g
       fill-opacity="1"
       id="id-95d22774-2ed6-425a-bc28-52d09b58e1a4"
       transform="translate(-149.04,-127.843)"
       style="fill:#6f1d77;fill-opacity:1;stroke-width:0;stroke-opacity:1">
      <g
         transform="translate(148.712,134.765)"
         id="g5534"
         style="fill:#6f1d77;fill-opacity:1;stroke-width:0;stroke-opacity:1">
        <path
           d="m 2.078125,-1.9375 c 0.21875,0.046875 1.03125,0.203125 1.03125,0.921875 0,0.5 -0.34375,0.90625 -1.125,0.90625 -0.84375,0 -1.203125,-0.5625 -1.390625,-1.421875 C 0.5625,-1.65625 0.5625,-1.6875 0.453125,-1.6875 c -0.125,0 -0.125,0.0625 -0.125,0.234375 V -0.125 c 0,0.171875 0,0.234375 0.109375,0.234375 0.046875,0 0.0625,-0.015625 0.25,-0.203125 0.015625,-0.015625 0.015625,-0.03125 0.203125,-0.21875 0.4375,0.40625 0.890625,0.421875 1.09375,0.421875 1.140625,0 1.609375,-0.671875 1.609375,-1.390625 0,-0.515625 -0.296875,-0.828125 -0.421875,-0.9375 C 2.84375,-2.546875 2.453125,-2.625 2.03125,-2.703125 1.46875,-2.8125 0.8125,-2.9375 0.8125,-3.515625 c 0,-0.359375 0.25,-0.765625 1.109375,-0.765625 1.09375,0 1.15625,0.90625 1.171875,1.203125 0,0.09375 0.09375,0.09375 0.109375,0.09375 0.140625,0 0.140625,-0.046875 0.140625,-0.234375 v -1.015625 c 0,-0.15625 0,-0.234375 -0.109375,-0.234375 -0.046875,0 -0.078125,0 -0.203125,0.125 -0.03125,0.03125 -0.125,0.125 -0.171875,0.15625 -0.375,-0.28125 -0.78125,-0.28125 -0.9375,-0.28125 -1.21875,0 -1.59375,0.671875 -1.59375,1.234375 0,0.34375 0.15625,0.625 0.421875,0.84375 0.328125,0.25 0.609375,0.3125 1.328125,0.453125 z m 0,0"
           id="id-e8226c01-e9fa-431f-842a-95364ed53e90"
           style="fill:#6f1d77;fill-opacity:1;stroke-width:0;stroke-opacity:1" />
      </g>
      <g
         transform="translate(152.641,134.765)"
         id="g2774"
         style="fill:#6f1d77;fill-opacity:1;stroke-width:0;stroke-opacity:1">
        <path
           d="M 1.09375,-3.421875 V -0.75 c 0,0.4375 -0.109375,0.4375 -0.78125,0.4375 V 0 c 0.359375,-0.015625 0.859375,-0.03125 1.140625,-0.03125 0.25,0 0.765625,0.015625 1.109375,0.03125 v -0.3125 c -0.671875,0 -0.78125,0 -0.78125,-0.4375 V -2.59375 C 1.78125,-3.625 2.5,-4.1875 3.125,-4.1875 c 0.640625,0 0.75,0.53125 0.75,1.109375 V -0.75 c 0,0.4375 -0.109375,0.4375 -0.78125,0.4375 V 0 c 0.34375,-0.015625 0.859375,-0.03125 1.125,-0.03125 0.25,0 0.78125,0.015625 1.109375,0.03125 v -0.3125 c -0.515625,0 -0.765625,0 -0.765625,-0.296875 v -1.90625 c 0,-0.859375 0,-1.15625 -0.3125,-1.515625 -0.140625,-0.171875 -0.46875,-0.375 -1.046875,-0.375 C 2.46875,-4.40625 2,-3.984375 1.71875,-3.359375 V -4.40625 L 0.3125,-4.296875 v 0.3125 c 0.703125,0 0.78125,0.0625 0.78125,0.5625 z m 0,0"
           id="id-8cb66a18-3a38-4ffe-b5ae-4ad5d891c057"
           style="fill:#6f1d77;fill-opacity:1;stroke-width:0;stroke-opacity:1" />
      </g>
      <g
         transform="translate(158.176,134.765)"
         id="g1077"
         style="fill:#6f1d77;fill-opacity:1;stroke-width:0;stroke-opacity:1">
        <path
           d="m 3.3125,-0.75 c 0.046875,0.390625 0.3125,0.8125 0.78125,0.8125 0.21875,0 0.828125,-0.140625 0.828125,-0.953125 v -0.5625 h -0.25 v 0.5625 c 0,0.578125 -0.25,0.640625 -0.359375,0.640625 -0.328125,0 -0.375,-0.453125 -0.375,-0.5 v -1.984375 c 0,-0.421875 0,-0.8125 -0.359375,-1.1875 C 3.1875,-4.3125 2.6875,-4.46875 2.21875,-4.46875 c -0.828125,0 -1.515625,0.46875 -1.515625,1.125 0,0.296875 0.203125,0.46875 0.46875,0.46875 0.28125,0 0.453125,-0.203125 0.453125,-0.453125 0,-0.125 -0.046875,-0.453125 -0.515625,-0.453125 C 1.390625,-4.140625 1.875,-4.25 2.1875,-4.25 c 0.5,0 1.0625,0.390625 1.0625,1.28125 v 0.359375 c -0.515625,0.03125 -1.203125,0.0625 -1.828125,0.359375 -0.75,0.34375 -1,0.859375 -1,1.296875 0,0.8125 0.96875,1.0625 1.59375,1.0625 0.65625,0 1.109375,-0.40625 1.296875,-0.859375 z M 3.25,-2.390625 v 1 c 0,0.9375 -0.71875,1.28125 -1.171875,1.28125 -0.484375,0 -0.890625,-0.34375 -0.890625,-0.84375 0,-0.546875 0.421875,-1.375 2.0625,-1.4375 z m 0,0"
           id="id-f45dbabf-6030-4b7a-8c92-468d776c305c"
           style="fill:#6f1d77;fill-opacity:1;stroke-width:0;stroke-opacity:1" />
      </g>
      <g
         transform="translate(163.158,134.765)"
         id="g1909"
         style="fill:#6f1d77;fill-opacity:1;stroke-width:0;stroke-opacity:1">
        <path
           d="m 1.71875,-3.75 v -0.65625 l -1.4375,0.109375 v 0.3125 c 0.703125,0 0.78125,0.0625 0.78125,0.5 v 4.65625 C 1.0625,1.625 0.953125,1.625 0.28125,1.625 V 1.9375 C 0.625,1.921875 1.140625,1.90625 1.390625,1.90625 c 0.28125,0 0.78125,0.015625 1.125,0.03125 V 1.625 C 1.859375,1.625 1.75,1.625 1.75,1.171875 V -0.59375 c 0.046875,0.171875 0.46875,0.703125 1.21875,0.703125 1.1875,0 2.21875,-0.984375 2.21875,-2.265625 0,-1.265625 -0.953125,-2.25 -2.078125,-2.25 -0.78125,0 -1.203125,0.4375 -1.390625,0.65625 z M 1.75,-1.140625 v -2.21875 C 2.03125,-3.875 2.515625,-4.15625 3.03125,-4.15625 c 0.734375,0 1.328125,0.875 1.328125,2 0,1.203125 -0.6875,2.046875 -1.421875,2.046875 -0.40625,0 -0.78125,-0.203125 -1.046875,-0.609375 C 1.75,-0.921875 1.75,-0.9375 1.75,-1.140625 Z m 0,0"
           id="id-b64f76c2-c5a5-4994-a992-b3eaf8931d74"
           style="fill:#6f1d77;fill-opacity:1;stroke-width:0;stroke-opacity:1" />
      </g>
      <g
         transform="translate(168.693,134.765)"
         id="g4551"
         style="fill:#6f1d77;fill-opacity:1;stroke-width:0;stroke-opacity:1">
        <path
           d="M 2.75,-1.859375 V -2.4375 H 0.109375 v 0.578125 z m 0,0"
           id="id-6fe8717c-ec8c-404d-8f4d-eaf8aa31dabf"
           style="fill:#6f1d77;fill-opacity:1;stroke-width:0;stroke-opacity:1" />
      </g>
      <g
         transform="translate(172.014,134.765)"
         id="g2108"
         style="fill:#6f1d77;fill-opacity:1;stroke-width:0;stroke-opacity:1">
        <path
           d="m 1.71875,-3.984375 h 1.4375 v -0.3125 H 1.71875 V -6.125 h -0.25 c 0,0.8125 -0.296875,1.875 -1.28125,1.921875 v 0.21875 h 0.84375 v 2.75 c 0,1.21875 0.9375,1.34375 1.296875,1.34375 0.703125,0 0.984375,-0.703125 0.984375,-1.34375 v -0.5625 h -0.25 V -1.25 c 0,0.734375 -0.296875,1.109375 -0.671875,1.109375 -0.671875,0 -0.671875,-0.90625 -0.671875,-1.078125 z m 0,0"
           id="id-fd7852e5-5b12-49af-8d0a-f1b63a356689"
           style="fill:#6f1d77;fill-opacity:1;stroke-width:0;stroke-opacity:1" />
      </g>
      <g
         transform="translate(175.888,134.765)"
         id="g9636"
         style="fill:#6f1d77;fill-opacity:1;stroke-width:0;stroke-opacity:1">
        <path
           d="m 1.09375,-0.75 c 0,0.4375 -0.109375,0.4375 -0.78125,0.4375 V 0 c 0.359375,-0.015625 0.859375,-0.03125 1.140625,-0.03125 0.25,0 0.765625,0.015625 1.109375,0.03125 v -0.3125 c -0.671875,0 -0.78125,0 -0.78125,-0.4375 V -2.59375 C 1.78125,-3.625 2.5,-4.1875 3.125,-4.1875 c 0.640625,0 0.75,0.53125 0.75,1.109375 V -0.75 c 0,0.4375 -0.109375,0.4375 -0.78125,0.4375 V 0 c 0.34375,-0.015625 0.859375,-0.03125 1.125,-0.03125 0.25,0 0.78125,0.015625 1.109375,0.03125 v -0.3125 c -0.515625,0 -0.765625,0 -0.765625,-0.296875 v -1.90625 c 0,-0.859375 0,-1.15625 -0.3125,-1.515625 -0.140625,-0.171875 -0.46875,-0.375 -1.046875,-0.375 -0.84375,0 -1.28125,0.59375 -1.453125,0.984375 v -3.5 L 0.3125,-6.8125 V -6.5 c 0.703125,0 0.78125,0.0625 0.78125,0.5625 z m 0,0"
           id="id-6edb60bd-f523-4d18-aff2-35d58e75ce81"
           style="fill:#6f1d77;fill-opacity:1;stroke-width:0;stroke-opacity:1" />
      </g>
      <g
         transform="translate(181.423,134.765)"
         id="g2967"
         style="fill:#6f1d77;fill-opacity:1;stroke-width:0;stroke-opacity:1">
        <path
           d="M 1.671875,-3.3125 V -4.40625 L 0.28125,-4.296875 v 0.3125 c 0.703125,0 0.78125,0.0625 0.78125,0.5625 V -0.75 c 0,0.4375 -0.109375,0.4375 -0.78125,0.4375 V 0 c 0.390625,-0.015625 0.859375,-0.03125 1.140625,-0.03125 0.390625,0 0.859375,0 1.265625,0.03125 V -0.3125 H 2.46875 c -0.734375,0 -0.75,-0.109375 -0.75,-0.46875 V -2.3125 c 0,-0.984375 0.421875,-1.875 1.171875,-1.875 0.0625,0 0.09375,0 0.109375,0.015625 -0.03125,0 -0.234375,0.125 -0.234375,0.390625 0,0.265625 0.21875,0.421875 0.4375,0.421875 0.171875,0 0.421875,-0.125 0.421875,-0.4375 0,-0.3125 -0.3125,-0.609375 -0.734375,-0.609375 -0.734375,0 -1.09375,0.671875 -1.21875,1.09375 z m 0,0"
           id="id-0e20d379-d809-4af9-b07c-c550135e7aa0"
           style="fill:#6f1d77;fill-opacity:1;stroke-width:0;stroke-opacity:1" />
      </g>
      <g
         transform="translate(185.326,134.765)"
         id="g8139"
         style="fill:#6f1d77;fill-opacity:1;stroke-width:0;stroke-opacity:1">
        <path
           d="M 4.6875,-2.140625 C 4.6875,-3.40625 3.703125,-4.46875 2.5,-4.46875 c -1.25,0 -2.21875,1.09375 -2.21875,2.328125 0,1.296875 1.03125,2.25 2.203125,2.25 1.203125,0 2.203125,-0.984375 2.203125,-2.25 z m -2.1875,2 c -0.4375,0 -0.875,-0.203125 -1.140625,-0.671875 -0.25,-0.4375 -0.25,-1.046875 -0.25,-1.40625 0,-0.390625 0,-0.921875 0.234375,-1.359375 C 1.609375,-4.03125 2.078125,-4.25 2.484375,-4.25 c 0.4375,0 0.859375,0.21875 1.125,0.65625 0.265625,0.421875 0.265625,1 0.265625,1.375 0,0.359375 0,0.90625 -0.21875,1.34375 C 3.421875,-0.421875 2.984375,-0.140625 2.5,-0.140625 Z m 0,0"
           id="id-95cd9486-f47b-417f-83ff-1671a82832a7"
           style="fill:#6f1d77;fill-opacity:1;stroke-width:0;stroke-opacity:1" />
      </g>
      <g
         transform="translate(190.307,134.765)"
         id="g8289"
         style="fill:#6f1d77;fill-opacity:1;stroke-width:0;stroke-opacity:1">
        <path
           d="M 3.890625,-0.78125 V 0.109375 L 5.328125,0 V -0.3125 C 4.640625,-0.3125 4.5625,-0.375 4.5625,-0.875 v -3.53125 l -1.46875,0.109375 v 0.3125 c 0.6875,0 0.78125,0.0625 0.78125,0.5625 v 1.765625 c 0,0.875 -0.484375,1.546875 -1.21875,1.546875 -0.828125,0 -0.875,-0.46875 -0.875,-0.984375 v -3.3125 L 0.3125,-4.296875 v 0.3125 c 0.78125,0 0.78125,0.03125 0.78125,0.90625 v 1.5 c 0,0.78125 0,1.6875 1.515625,1.6875 0.5625,0 1,-0.28125 1.28125,-0.890625 z m 0,0"
           id="id-8678af56-cb32-43e4-bf28-89e2e6d5ea42"
           style="fill:#6f1d77;fill-opacity:1;stroke-width:0;stroke-opacity:1" />
      </g>
      <g
         transform="translate(195.842,134.765)"
         id="g8105"
         style="fill:#6f1d77;fill-opacity:1;stroke-width:0;stroke-opacity:1">
        <path
           d="m 2.21875,-1.71875 c -0.875,0 -0.875,-1 -0.875,-1.21875 0,-0.265625 0.015625,-0.59375 0.15625,-0.84375 0.078125,-0.109375 0.3125,-0.390625 0.71875,-0.390625 0.859375,0 0.859375,0.984375 0.859375,1.21875 0,0.265625 0,0.59375 -0.15625,0.84375 C 2.84375,-2 2.609375,-1.71875 2.21875,-1.71875 Z M 1.0625,-1.328125 c 0,-0.03125 0,-0.265625 0.15625,-0.46875 0.390625,0.28125 0.8125,0.3125 1,0.3125 0.921875,0 1.609375,-0.6875 1.609375,-1.453125 0,-0.375 -0.15625,-0.734375 -0.40625,-0.96875 C 3.78125,-4.25 4.140625,-4.296875 4.3125,-4.296875 c 0.03125,0 0.078125,0 0.109375,0.015625 C 4.3125,-4.25 4.25,-4.140625 4.25,-4.015625 c 0,0.171875 0.140625,0.28125 0.296875,0.28125 0.09375,0 0.28125,-0.0625 0.28125,-0.296875 0,-0.171875 -0.109375,-0.484375 -0.5,-0.484375 -0.203125,0 -0.640625,0.0625 -1.0625,0.46875 C 2.84375,-4.375 2.4375,-4.40625 2.21875,-4.40625 c -0.9375,0 -1.625,0.6875 -1.625,1.453125 0,0.4375 0.21875,0.8125 0.46875,1.03125 -0.125,0.140625 -0.3125,0.46875 -0.3125,0.828125 0,0.3125 0.140625,0.6875 0.453125,0.890625 -0.609375,0.15625 -0.921875,0.59375 -0.921875,0.984375 0,0.71875 0.984375,1.265625 2.203125,1.265625 1.171875,0 2.203125,-0.5 2.203125,-1.28125 0,-0.34375 -0.125,-0.859375 -0.640625,-1.140625 -0.53125,-0.265625 -1.109375,-0.265625 -1.71875,-0.265625 -0.25,0 -0.671875,0 -0.75,-0.015625 C 1.265625,-0.703125 1.0625,-1 1.0625,-1.328125 Z M 2.5,1.828125 c -1.015625,0 -1.703125,-0.515625 -1.703125,-1.046875 0,-0.453125 0.375,-0.828125 0.8125,-0.84375 h 0.59375 c 0.859375,0 1.96875,0 1.96875,0.84375 0,0.546875 -0.703125,1.046875 -1.671875,1.046875 z m 0,0"
           id="id-6780450a-1e85-4569-9a57-2a829731c0a6"
           style="fill:#6f1d77;fill-opacity:1;stroke-width:0;stroke-opacity:1" />
      </g>
      <g
         transform="translate(200.823,134.765)"
         id="g7949"
         style="fill:#6f1d77;fill-opacity:1;stroke-width:0;stroke-opacity:1">
        <path
           d="m 1.09375,-0.75 c 0,0.4375 -0.109375,0.4375 -0.78125,0.4375 V 0 c 0.359375,-0.015625 0.859375,-0.03125 1.140625,-0.03125 0.25,0 0.765625,0.015625 1.109375,0.03125 v -0.3125 c -0.671875,0 -0.78125,0 -0.78125,-0.4375 V -2.59375 C 1.78125,-3.625 2.5,-4.1875 3.125,-4.1875 c 0.640625,0 0.75,0.53125 0.75,1.109375 V -0.75 c 0,0.4375 -0.109375,0.4375 -0.78125,0.4375 V 0 c 0.34375,-0.015625 0.859375,-0.03125 1.125,-0.03125 0.25,0 0.78125,0.015625 1.109375,0.03125 v -0.3125 c -0.515625,0 -0.765625,0 -0.765625,-0.296875 v -1.90625 c 0,-0.859375 0,-1.15625 -0.3125,-1.515625 -0.140625,-0.171875 -0.46875,-0.375 -1.046875,-0.375 -0.84375,0 -1.28125,0.59375 -1.453125,0.984375 v -3.5 L 0.3125,-6.8125 V -6.5 c 0.703125,0 0.78125,0.0625 0.78125,0.5625 z m 0,0"
           id="id-abb717c5-2d23-4ff2-a9df-ff92f7c3ae73"
           style="fill:#6f1d77;fill-opacity:1;stroke-width:0;stroke-opacity:1" />
      </g>
    </g>
  </g>
  <path
     style="fill:none;stroke:#000000;stroke-width:0.937499px;stroke-linecap:butt;stroke-linejoin:miter;stroke-opacity:1"
     d="M 380.0269,53.9918 V 40.1142"
     id="path577" />
  <path
     style="fill:none;stroke:#000000;stroke-width:0.937499px;stroke-linecap:butt;stroke-linejoin:miter;stroke-opacity:1"
     d="m 375.0302,40.1142 h 9.9934"
     id="path579" />
  <g
     transform="matrix(2.38517,0,0,2.38517,316.9149,36.68)"
     ns1:version="1.9.0"
     ns1:texconverter="pdflatex"
     ns1:pdfconverter="inkscape"
     ns1:text="$\\Delta \\mathbf{f}_\\mathrm{ext}$"
     ns1:preamble="/home/iuribarcelos/.config/inkscape/extensions/textext/default_packages.tex"
     ns1:scale="1.7888804714379716"
     ns1:alignment="middle center"
     ns1:stroke-to-path="0"
     ns1:inkscapeversion="1.3.2"
     id="g594"
     ns1:jacobian_sqrt="2.38517">
    <defs
       id="defs585" />
    <g
       fill="#000000"
       fill-opacity="1"
       id="g587"
       transform="translate(-149.181,-127.624)">
      <g
         transform="translate(148.712,134.765)"
         id="g586">
        <path
           d="m 4.40625,-6.953125 c -0.0625,-0.140625 -0.09375,-0.1875 -0.265625,-0.1875 -0.15625,0 -0.1875,0.046875 -0.25,0.1875 l -3.375,6.75 C 0.46875,-0.109375 0.46875,-0.09375 0.46875,-0.078125 0.46875,0 0.53125,0 0.6875,0 h 6.921875 c 0.15625,0 0.21875,0 0.21875,-0.078125 0,-0.015625 0,-0.03125 -0.046875,-0.125 z m -0.578125,0.8125 2.6875,5.390625 h -5.375 z m 0,0"
           id="path585" />
      </g>
    </g>
    <g
       fill="#000000"
       fill-opacity="1"
       id="g589"
       transform="translate(-149.181,-127.624)">
      <g
         transform="translate(157.015,134.765)"
         id="g588">
        <path
           d="m 1.171875,-4.421875 h -0.75 v 0.46875 h 0.75 v 3.484375 h -0.6875 V 0 c 0.34375,-0.015625 0.796875,-0.03125 1.25,-0.03125 0.375,0 1.015625,0 1.375,0.03125 V -0.46875 H 2.25 v -3.484375 h 1.140625 v -0.46875 H 2.1875 V -5.4375 c 0,-1.09375 0.75,-1.1875 1,-1.1875 0.046875,0 0.109375,0 0.171875,0.03125 C 3.203125,-6.484375 3.125,-6.296875 3.125,-6.109375 3.125,-5.6875 3.484375,-5.5 3.734375,-5.5 c 0.296875,0 0.625,-0.203125 0.625,-0.609375 0,-0.421875 -0.359375,-0.875 -1.140625,-0.875 -0.96875,0 -2.046875,0.421875 -2.046875,1.546875 z m 0,0"
           id="path587" />
      </g>
    </g>
    <g
       fill="#000000"
       fill-opacity="1"
       id="g593"
       transform="translate(-149.181,-127.624)">
      <g
         transform="translate(160.515,136.259)"
         id="g590">
        <path
           d="m 3.0625,-1.59375 c 0.15625,0 0.203125,0 0.203125,-0.140625 0,-0.625 -0.34375,-1.375 -1.390625,-1.375 -0.90625,0 -1.609375,0.71875 -1.609375,1.578125 0,0.890625 0.78125,1.59375 1.703125,1.59375 0.9375,0 1.296875,-0.75 1.296875,-0.90625 0,-0.015625 -0.015625,-0.09375 -0.125,-0.09375 -0.09375,0 -0.109375,0.046875 -0.125,0.109375 -0.21875,0.5625 -0.75,0.671875 -1,0.671875 C 1.6875,-0.15625 1.375,-0.296875 1.171875,-0.5625 0.90625,-0.890625 0.90625,-1.3125 0.90625,-1.59375 Z M 0.90625,-1.765625 C 0.984375,-2.75 1.609375,-2.90625 1.875,-2.90625 c 0.859375,0 0.890625,0.96875 0.90625,1.140625 z m 0,0"
           id="path589" />
      </g>
      <g
         transform="translate(164.057,136.259)"
         id="g591">
        <path
           d="m 2.359375,-1.5625 c 0,0 -0.046875,-0.0625 -0.046875,-0.0625 0,-0.03125 0.453125,-0.515625 0.515625,-0.578125 C 3.078125,-2.484375 3.3125,-2.75 3.875,-2.75 V -3 C 3.671875,-2.984375 3.46875,-2.96875 3.28125,-2.96875 3.078125,-2.96875 2.796875,-2.984375 2.59375,-3 v 0.25 c 0.109375,0.015625 0.140625,0.09375 0.140625,0.15625 0,0.015625 0,0.125 -0.109375,0.234375 L 2.140625,-1.8125 1.5625,-2.46875 C 1.484375,-2.546875 1.484375,-2.578125 1.484375,-2.609375 c 0,-0.09375 0.09375,-0.140625 0.1875,-0.140625 V -3 c -0.25,0.015625 -0.515625,0.03125 -0.78125,0.03125 C 0.6875,-2.96875 0.421875,-2.984375 0.21875,-3 v 0.25 c 0.3125,0 0.5,0 0.6875,0.203125 l 0.859375,1 c 0.015625,0.015625 0.0625,0.0625 0.0625,0.078125 0,0.015625 -0.53125,0.59375 -0.59375,0.671875 -0.265625,0.28125 -0.5,0.53125 -1.046875,0.546875 V 0 C 0.390625,-0.015625 0.546875,-0.03125 0.765625,-0.03125 0.96875,-0.03125 1.25,-0.015625 1.453125,0 V -0.25 C 1.375,-0.265625 1.3125,-0.3125 1.3125,-0.40625 1.3125,-0.546875 1.390625,-0.640625 1.5,-0.75 L 2,-1.296875 2.59375,-0.59375 c 0.140625,0.140625 0.140625,0.15625 0.140625,0.203125 0,0.125 -0.15625,0.140625 -0.1875,0.140625 V 0 c 0.0625,0 0.5625,-0.03125 0.78125,-0.03125 C 3.546875,-0.03125 3.78125,-0.015625 4,0 v -0.25 c -0.46875,0 -0.515625,-0.046875 -0.6875,-0.21875 z m 0,0"
           id="path590" />
      </g>
      <g
         transform="translate(168.243,136.259)"
         id="g592">
        <path
           d="M 1.40625,-2.75 H 2.484375 V -3 H 1.40625 v -1.28125 h -0.25 c 0,0.625 -0.28125,1.3125 -0.953125,1.328125 V -2.75 H 0.84375 v 1.875 c 0,0.78125 0.59375,0.9375 0.984375,0.9375 0.46875,0 0.78125,-0.390625 0.78125,-0.9375 V -1.265625 H 2.375 v 0.375 c 0,0.484375 -0.21875,0.734375 -0.5,0.734375 -0.46875,0 -0.46875,-0.578125 -0.46875,-0.703125 z m 0,0"
           id="path591" />
      </g>
    </g>
  </g>
  <path
     style="fill:none;stroke:#000000;stroke-width:0.937499px;stroke-linecap:butt;stroke-linejoin:miter;stroke-opacity:1"
     d="m 375.0302,53.9918 h 9.9934"
     id="path594" />
  <path
     id="path3"
     style="fill:none;stroke:#a50034;stroke-width:1.53978;stroke-linecap:butt;stroke-linejoin:miter;stroke-dasharray:none;stroke-opacity:1"
     d="m 105.20007,113.76812 c 2.23276,-4.56479 4.58317,-8.84965 7.0393,-12.85795" />
  <path
     id="path7"
     style="fill:none;stroke:#a50034;stroke-width:1.53978;stroke-linecap:butt;stroke-linejoin:miter;stroke-dasharray:none;stroke-opacity:1"
     d="m 183.84802,56.603082 c 4.81939,0.18061 9.66316,0.86985 14.49671,2.05796" />
  <path
     id="path4"
     style="fill:none;stroke:#a50034;stroke-width:1.53978;stroke-linecap:butt;stroke-linejoin:miter;stroke-dasharray:4.61934006,4.61934006;stroke-dashoffset:0;stroke-opacity:1"
     d="m 198.34473,58.661042 c 29.85846,7.33941 59.32664,33.71595 80.24687,76.833988" />
  <path
     id="path6"
     style="fill:none;stroke:#a50034;stroke-width:1.53978;stroke-linecap:butt;stroke-linejoin:miter;stroke-dasharray:none;stroke-opacity:1"
     d="M 83.2319,193.76203 C 95.5955,97.951124 138.64965,54.909212 183.84802,56.603082" />
  <circle
     style="fill:#00b8c8;fill-opacity:1;stroke:none;stroke-width:1.75178;stroke-linejoin:bevel;stroke-miterlimit:3.9;stroke-dasharray:13.9922, 6.99608;stroke-dashoffset:0;stroke-opacity:1"
     id="circle5"
     cx="108.56003"
     cy="107.85544"
     r="7.3475151" />
  <path
     style="fill:none;stroke:#a50034;stroke-width:1.54134;stroke-linecap:butt;stroke-linejoin:miter;stroke-dasharray:none;stroke-opacity:1"
     d="M 581.61713,41.360889 600.32911,0"
     id="path132"
     sodipodi:nodetypes="cc" />
  <path
     id="path28"
     style="fill:none;stroke:#a50034;stroke-width:1.53978;stroke-linecap:butt;stroke-linejoin:miter;stroke-dasharray:none;stroke-opacity:1"
     d="m 578.9675,48.153769 c 2.5615,-5.59647 5.17502,-11.66784 7.8432,-18.24485" />
  <path
     id="path131"
     style="fill:none;stroke:#a50034;stroke-width:1.53978;stroke-linecap:butt;stroke-linejoin:miter;stroke-dasharray:none;stroke-opacity:1"
     d="m 572.56762,61.373919 c 2.09702,-4.07832 4.22978,-8.47881 6.39988,-13.22015" />
  <path
     id="path130"
     style="fill:none;stroke:#a50034;stroke-width:1.54134;stroke-linecap:butt;stroke-linejoin:miter;stroke-dasharray:4.62402, 4.62402;stroke-dashoffset:0;stroke-opacity:1"
     d="m 459.65863,56.155759 c 31.89341,12.56884 61.77763,104.659331 112.90899,5.21816" />
  <path
     id="path129"
     style="fill:none;stroke:#a50034;stroke-width:1.53978;stroke-linecap:butt;stroke-linejoin:miter;stroke-dasharray:none;stroke-opacity:1"
     d="m 445.37464,56.636579 c 4.85424,-2.45794 9.59087,-2.33033 14.28399,-0.48082" />
  <path
     id="path128"
     style="fill:none;stroke:#a50034;stroke-width:1.53978;stroke-linecap:butt;stroke-linejoin:miter;stroke-dasharray:none;stroke-opacity:1"
     d="M 391.451,193.62062 C 412.40309,100.29044 429.51644,64.666369 445.37464,56.636579" />
  <circle
     style="fill:#00b8c8;fill-opacity:1;stroke:none;stroke-width:1.75178;stroke-linejoin:bevel;stroke-miterlimit:3.9;stroke-dasharray:13.9922, 6.99608;stroke-dashoffset:0;stroke-opacity:1"
     id="circle32"
     cx="581.61713"
     cy="41.360889"
     r="7.3475151" />
  <path
     style="fill:none;stroke:#6f1d77;stroke-width:0.93897638;stroke-linecap:butt;stroke-linejoin:miter;stroke-opacity:1;marker-end:url(#marker529);stroke-dasharray:none"
     d="M 178.1829,119.02837 239.36223,94.951888"
     id="path49" />
  <g
     transform="matrix(1.24214,-0.484634,0.484634,1.24214,180.76724,123.65519)"
     ns1:version="1.10.2"
     ns1:texconverter="pdflatex"
     ns1:pdfconverter="inkscape"
     ns1:text="$\\text{inaccessible}$"
     ns1:preamble="/home/iuribarcelos/.config/inkscape/extensions/textext/default_packages.tex"
     ns1:scale="1.0"
     ns1:alignment="middle center"
     ns1:stroke-to-path="0"
     ns1:jacobian_sqrt="1.3333348767492734"
     style="fill:#6f1d77;fill-opacity:1;stroke-width:0;stroke-opacity:1"
     id="g87">
    <defs
       id="id-91ecdfc5-27a9-41cc-a45d-abc306285244"
       style="fill:#6f1d77;fill-opacity:1;stroke-width:0;stroke-opacity:1">
      <g
         id="id-7eb84da1-a27e-424c-889d-df773fa01ff7"
         style="fill:#6f1d77;fill-opacity:1;stroke-width:0;stroke-opacity:1">
        <g
           id="id-fa410c20-f2b1-4e03-ae0b-931c756fed22"
           style="fill:#6f1d77;fill-opacity:1;stroke-width:0;stroke-opacity:1">
          <path
             d="M 1.765625,-4.40625 0.375,-4.296875 v 0.3125 c 0.640625,0 0.734375,0.0625 0.734375,0.546875 V -0.75 c 0,0.4375 -0.109375,0.4375 -0.78125,0.4375 V 0 C 0.640625,-0.015625 1.1875,-0.03125 1.421875,-0.03125 1.78125,-0.03125 2.125,-0.015625 2.46875,0 v -0.3125 c -0.671875,0 -0.703125,-0.046875 -0.703125,-0.4375 z m 0.03125,-1.734375 c 0,-0.3125 -0.234375,-0.53125 -0.515625,-0.53125 -0.3125,0 -0.53125,0.265625 -0.53125,0.53125 0,0.265625 0.21875,0.53125 0.53125,0.53125 0.28125,0 0.515625,-0.21875 0.515625,-0.53125 z m 0,0"
             id="id-49f057d8-a3c2-4c05-913b-1bf50e491735"
             style="fill:#6f1d77;fill-opacity:1;stroke-width:0;stroke-opacity:1" />
        </g>
        <g
           id="id-69ab7701-7e78-41d2-aeaa-1aee5b4d5eb2"
           style="fill:#6f1d77;fill-opacity:1;stroke-width:0;stroke-opacity:1">
          <path
             d="M 1.09375,-3.421875 V -0.75 c 0,0.4375 -0.109375,0.4375 -0.78125,0.4375 V 0 c 0.359375,-0.015625 0.859375,-0.03125 1.140625,-0.03125 0.25,0 0.765625,0.015625 1.109375,0.03125 v -0.3125 c -0.671875,0 -0.78125,0 -0.78125,-0.4375 V -2.59375 C 1.78125,-3.625 2.5,-4.1875 3.125,-4.1875 c 0.640625,0 0.75,0.53125 0.75,1.109375 V -0.75 c 0,0.4375 -0.109375,0.4375 -0.78125,0.4375 V 0 c 0.34375,-0.015625 0.859375,-0.03125 1.125,-0.03125 0.25,0 0.78125,0.015625 1.109375,0.03125 v -0.3125 c -0.515625,0 -0.765625,0 -0.765625,-0.296875 v -1.90625 c 0,-0.859375 0,-1.15625 -0.3125,-1.515625 -0.140625,-0.171875 -0.46875,-0.375 -1.046875,-0.375 C 2.46875,-4.40625 2,-3.984375 1.71875,-3.359375 V -4.40625 L 0.3125,-4.296875 v 0.3125 c 0.703125,0 0.78125,0.0625 0.78125,0.5625 z m 0,0"
             id="id-67050a91-b113-448a-9546-e66cc6fd8a05"
             style="fill:#6f1d77;fill-opacity:1;stroke-width:0;stroke-opacity:1" />
        </g>
        <g
           id="id-830ecca9-f93d-4224-9135-ba9c113ea917"
           style="fill:#6f1d77;fill-opacity:1;stroke-width:0;stroke-opacity:1">
          <path
             d="m 3.3125,-0.75 c 0.046875,0.390625 0.3125,0.8125 0.78125,0.8125 0.21875,0 0.828125,-0.140625 0.828125,-0.953125 v -0.5625 h -0.25 v 0.5625 c 0,0.578125 -0.25,0.640625 -0.359375,0.640625 -0.328125,0 -0.375,-0.453125 -0.375,-0.5 v -1.984375 c 0,-0.421875 0,-0.8125 -0.359375,-1.1875 C 3.1875,-4.3125 2.6875,-4.46875 2.21875,-4.46875 c -0.828125,0 -1.515625,0.46875 -1.515625,1.125 0,0.296875 0.203125,0.46875 0.46875,0.46875 0.28125,0 0.453125,-0.203125 0.453125,-0.453125 0,-0.125 -0.046875,-0.453125 -0.515625,-0.453125 C 1.390625,-4.140625 1.875,-4.25 2.1875,-4.25 c 0.5,0 1.0625,0.390625 1.0625,1.28125 v 0.359375 c -0.515625,0.03125 -1.203125,0.0625 -1.828125,0.359375 -0.75,0.34375 -1,0.859375 -1,1.296875 0,0.8125 0.96875,1.0625 1.59375,1.0625 0.65625,0 1.109375,-0.40625 1.296875,-0.859375 z M 3.25,-2.390625 v 1 c 0,0.9375 -0.71875,1.28125 -1.171875,1.28125 -0.484375,0 -0.890625,-0.34375 -0.890625,-0.84375 0,-0.546875 0.421875,-1.375 2.0625,-1.4375 z m 0,0"
             id="id-1b673a7c-2a6e-4b94-ab36-6260d95afa3f"
             style="fill:#6f1d77;fill-opacity:1;stroke-width:0;stroke-opacity:1" />
        </g>
        <g
           id="id-db1816a9-e325-4525-8c46-8b17f5e296b9"
           style="fill:#6f1d77;fill-opacity:1;stroke-width:0;stroke-opacity:1">
          <path
             d="m 1.171875,-2.171875 c 0,-1.625 0.8125,-2.046875 1.34375,-2.046875 0.09375,0 0.71875,0.015625 1.0625,0.375 -0.40625,0.03125 -0.46875,0.328125 -0.46875,0.453125 0,0.265625 0.1875,0.453125 0.453125,0.453125 0.265625,0 0.46875,-0.15625 0.46875,-0.46875 0,-0.671875 -0.765625,-1.0625 -1.53125,-1.0625 -1.25,0 -2.15625,1.078125 -2.15625,2.3125 0,1.28125 0.984375,2.265625 2.140625,2.265625 1.328125,0 1.65625,-1.203125 1.65625,-1.296875 0,-0.09375 -0.109375,-0.09375 -0.140625,-0.09375 -0.078125,0 -0.109375,0.03125 -0.125,0.09375 -0.28125,0.921875 -0.9375,1.046875 -1.296875,1.046875 -0.53125,0 -1.40625,-0.421875 -1.40625,-2.03125 z m 0,0"
             id="id-16d16429-05a3-4fa2-9a5d-2a1e193c9b3d"
             style="fill:#6f1d77;fill-opacity:1;stroke-width:0;stroke-opacity:1" />
        </g>
        <g
           id="id-57ff3437-0dc8-444c-8b9d-2078588de884"
           style="fill:#6f1d77;fill-opacity:1;stroke-width:0;stroke-opacity:1">
          <path
             d="M 1.109375,-2.515625 C 1.171875,-4 2.015625,-4.25 2.359375,-4.25 c 1.015625,0 1.125,1.34375 1.125,1.734375 z m 0,0.21875 h 2.78125 c 0.21875,0 0.25,0 0.25,-0.21875 0,-0.984375 -0.546875,-1.953125 -1.78125,-1.953125 -1.15625,0 -2.078125,1.03125 -2.078125,2.28125 0,1.328125 1.046875,2.296875 2.1875,2.296875 C 3.6875,0.109375 4.140625,-1 4.140625,-1.1875 4.140625,-1.28125 4.0625,-1.3125 4,-1.3125 c -0.078125,0 -0.109375,0.0625 -0.125,0.140625 -0.34375,1.03125 -1.25,1.03125 -1.34375,1.03125 -0.5,0 -0.890625,-0.296875 -1.125,-0.671875 -0.296875,-0.46875 -0.296875,-1.125 -0.296875,-1.484375 z m 0,0"
             id="id-cee4b7e9-75fd-4b26-8052-2eff89e1111f"
             style="fill:#6f1d77;fill-opacity:1;stroke-width:0;stroke-opacity:1" />
        </g>
        <g
           id="id-6eb46cd7-468d-4102-bd7c-001d541aa801"
           style="fill:#6f1d77;fill-opacity:1;stroke-width:0;stroke-opacity:1">
          <path
             d="m 2.078125,-1.9375 c 0.21875,0.046875 1.03125,0.203125 1.03125,0.921875 0,0.5 -0.34375,0.90625 -1.125,0.90625 -0.84375,0 -1.203125,-0.5625 -1.390625,-1.421875 C 0.5625,-1.65625 0.5625,-1.6875 0.453125,-1.6875 c -0.125,0 -0.125,0.0625 -0.125,0.234375 V -0.125 c 0,0.171875 0,0.234375 0.109375,0.234375 0.046875,0 0.0625,-0.015625 0.25,-0.203125 0.015625,-0.015625 0.015625,-0.03125 0.203125,-0.21875 0.4375,0.40625 0.890625,0.421875 1.09375,0.421875 1.140625,0 1.609375,-0.671875 1.609375,-1.390625 0,-0.515625 -0.296875,-0.828125 -0.421875,-0.9375 C 2.84375,-2.546875 2.453125,-2.625 2.03125,-2.703125 1.46875,-2.8125 0.8125,-2.9375 0.8125,-3.515625 c 0,-0.359375 0.25,-0.765625 1.109375,-0.765625 1.09375,0 1.15625,0.90625 1.171875,1.203125 0,0.09375 0.09375,0.09375 0.109375,0.09375 0.140625,0 0.140625,-0.046875 0.140625,-0.234375 v -1.015625 c 0,-0.15625 0,-0.234375 -0.109375,-0.234375 -0.046875,0 -0.078125,0 -0.203125,0.125 -0.03125,0.03125 -0.125,0.125 -0.171875,0.15625 -0.375,-0.28125 -0.78125,-0.28125 -0.9375,-0.28125 -1.21875,0 -1.59375,0.671875 -1.59375,1.234375 0,0.34375 0.15625,0.625 0.421875,0.84375 0.328125,0.25 0.609375,0.3125 1.328125,0.453125 z m 0,0"
             id="id-d7ecfc6a-3faa-4b81-9a7b-0a2d6be3a802"
             style="fill:#6f1d77;fill-opacity:1;stroke-width:0;stroke-opacity:1" />
        </g>
        <g
           id="id-f3832927-d155-413c-9aae-b857baeebff2"
           style="fill:#6f1d77;fill-opacity:1;stroke-width:0;stroke-opacity:1">
          <path
             d="m 1.71875,-3.765625 v -3.15625 L 0.28125,-6.8125 V -6.5 c 0.703125,0 0.78125,0.0625 0.78125,0.5625 V 0 h 0.25 c 0,-0.015625 0.078125,-0.15625 0.359375,-0.625 0.140625,0.234375 0.5625,0.734375 1.296875,0.734375 1.1875,0 2.21875,-0.984375 2.21875,-2.265625 0,-1.265625 -0.96875,-2.25 -2.109375,-2.25 -0.78125,0 -1.203125,0.46875 -1.359375,0.640625 z m 0.03125,2.625 V -3.1875 c 0,-0.1875 0,-0.203125 0.109375,-0.359375 C 2.25,-4.109375 2.796875,-4.1875 3.03125,-4.1875 c 0.453125,0 0.8125,0.265625 1.046875,0.640625 0.265625,0.40625 0.28125,0.96875 0.28125,1.390625 0,0.359375 -0.015625,0.953125 -0.296875,1.40625 -0.21875,0.3125 -0.59375,0.640625 -1.125,0.640625 -0.453125,0 -0.8125,-0.234375 -1.046875,-0.609375 C 1.75,-0.921875 1.75,-0.953125 1.75,-1.140625 Z m 0,0"
             id="id-4e344081-00d1-4569-a219-d67cba90b57f"
             style="fill:#6f1d77;fill-opacity:1;stroke-width:0;stroke-opacity:1" />
        </g>
        <g
           id="id-123c1d45-e1c7-4de7-af65-96dae5b071a1"
           style="fill:#6f1d77;fill-opacity:1;stroke-width:0;stroke-opacity:1">
          <path
             d="M 1.765625,-6.921875 0.328125,-6.8125 V -6.5 c 0.703125,0 0.78125,0.0625 0.78125,0.5625 V -0.75 c 0,0.4375 -0.109375,0.4375 -0.78125,0.4375 V 0 C 0.65625,-0.015625 1.1875,-0.03125 1.4375,-0.03125 c 0.25,0 0.734375,0.015625 1.109375,0.03125 v -0.3125 c -0.671875,0 -0.78125,0 -0.78125,-0.4375 z m 0,0"
             id="id-f62ae622-c784-4f56-983e-a7c3f0091d20"
             style="fill:#6f1d77;fill-opacity:1;stroke-width:0;stroke-opacity:1" />
        </g>
      </g>
    </defs>
    <g
       fill-opacity="1"
       id="id-62f799c4-e73b-4085-bb34-51d2ff09be6b"
       transform="translate(-149.04,-127.843)"
       style="fill:#6f1d77;fill-opacity:1;stroke-width:0;stroke-opacity:1">
      <g
         transform="translate(148.712,134.765)"
         style="fill:#6f1d77;fill-opacity:1;stroke-width:0;stroke-opacity:1"
         id="g75">
        <path
           d="M 1.765625,-4.40625 0.375,-4.296875 v 0.3125 c 0.640625,0 0.734375,0.0625 0.734375,0.546875 V -0.75 c 0,0.4375 -0.109375,0.4375 -0.78125,0.4375 V 0 C 0.640625,-0.015625 1.1875,-0.03125 1.421875,-0.03125 1.78125,-0.03125 2.125,-0.015625 2.46875,0 v -0.3125 c -0.671875,0 -0.703125,-0.046875 -0.703125,-0.4375 z m 0.03125,-1.734375 c 0,-0.3125 -0.234375,-0.53125 -0.515625,-0.53125 -0.3125,0 -0.53125,0.265625 -0.53125,0.53125 0,0.265625 0.21875,0.53125 0.53125,0.53125 0.28125,0 0.515625,-0.21875 0.515625,-0.53125 z m 0,0"
           id="id-35ebab26-5552-4494-a3df-b45ea1daf287"
           style="fill:#6f1d77;fill-opacity:1;stroke-width:0;stroke-opacity:1" />
      </g>
      <g
         transform="translate(151.48,134.765)"
         style="fill:#6f1d77;fill-opacity:1;stroke-width:0;stroke-opacity:1"
         id="g76">
        <path
           d="M 1.09375,-3.421875 V -0.75 c 0,0.4375 -0.109375,0.4375 -0.78125,0.4375 V 0 c 0.359375,-0.015625 0.859375,-0.03125 1.140625,-0.03125 0.25,0 0.765625,0.015625 1.109375,0.03125 v -0.3125 c -0.671875,0 -0.78125,0 -0.78125,-0.4375 V -2.59375 C 1.78125,-3.625 2.5,-4.1875 3.125,-4.1875 c 0.640625,0 0.75,0.53125 0.75,1.109375 V -0.75 c 0,0.4375 -0.109375,0.4375 -0.78125,0.4375 V 0 c 0.34375,-0.015625 0.859375,-0.03125 1.125,-0.03125 0.25,0 0.78125,0.015625 1.109375,0.03125 v -0.3125 c -0.515625,0 -0.765625,0 -0.765625,-0.296875 v -1.90625 c 0,-0.859375 0,-1.15625 -0.3125,-1.515625 -0.140625,-0.171875 -0.46875,-0.375 -1.046875,-0.375 C 2.46875,-4.40625 2,-3.984375 1.71875,-3.359375 V -4.40625 L 0.3125,-4.296875 v 0.3125 c 0.703125,0 0.78125,0.0625 0.78125,0.5625 z m 0,0"
           id="id-12998041-c153-4152-a35b-646bc9885d4a"
           style="fill:#6f1d77;fill-opacity:1;stroke-width:0;stroke-opacity:1" />
      </g>
      <g
         transform="translate(157.015,134.765)"
         style="fill:#6f1d77;fill-opacity:1;stroke-width:0;stroke-opacity:1"
         id="g77">
        <path
           d="m 3.3125,-0.75 c 0.046875,0.390625 0.3125,0.8125 0.78125,0.8125 0.21875,0 0.828125,-0.140625 0.828125,-0.953125 v -0.5625 h -0.25 v 0.5625 c 0,0.578125 -0.25,0.640625 -0.359375,0.640625 -0.328125,0 -0.375,-0.453125 -0.375,-0.5 v -1.984375 c 0,-0.421875 0,-0.8125 -0.359375,-1.1875 C 3.1875,-4.3125 2.6875,-4.46875 2.21875,-4.46875 c -0.828125,0 -1.515625,0.46875 -1.515625,1.125 0,0.296875 0.203125,0.46875 0.46875,0.46875 0.28125,0 0.453125,-0.203125 0.453125,-0.453125 0,-0.125 -0.046875,-0.453125 -0.515625,-0.453125 C 1.390625,-4.140625 1.875,-4.25 2.1875,-4.25 c 0.5,0 1.0625,0.390625 1.0625,1.28125 v 0.359375 c -0.515625,0.03125 -1.203125,0.0625 -1.828125,0.359375 -0.75,0.34375 -1,0.859375 -1,1.296875 0,0.8125 0.96875,1.0625 1.59375,1.0625 0.65625,0 1.109375,-0.40625 1.296875,-0.859375 z M 3.25,-2.390625 v 1 c 0,0.9375 -0.71875,1.28125 -1.171875,1.28125 -0.484375,0 -0.890625,-0.34375 -0.890625,-0.84375 0,-0.546875 0.421875,-1.375 2.0625,-1.4375 z m 0,0"
           id="id-042eaea3-da00-4e61-8c75-063e033c0952"
           style="fill:#6f1d77;fill-opacity:1;stroke-width:0;stroke-opacity:1" />
      </g>
      <g
         transform="translate(161.996,134.765)"
         style="fill:#6f1d77;fill-opacity:1;stroke-width:0;stroke-opacity:1"
         id="g78">
        <path
           d="m 1.171875,-2.171875 c 0,-1.625 0.8125,-2.046875 1.34375,-2.046875 0.09375,0 0.71875,0.015625 1.0625,0.375 -0.40625,0.03125 -0.46875,0.328125 -0.46875,0.453125 0,0.265625 0.1875,0.453125 0.453125,0.453125 0.265625,0 0.46875,-0.15625 0.46875,-0.46875 0,-0.671875 -0.765625,-1.0625 -1.53125,-1.0625 -1.25,0 -2.15625,1.078125 -2.15625,2.3125 0,1.28125 0.984375,2.265625 2.140625,2.265625 1.328125,0 1.65625,-1.203125 1.65625,-1.296875 0,-0.09375 -0.109375,-0.09375 -0.140625,-0.09375 -0.078125,0 -0.109375,0.03125 -0.125,0.09375 -0.28125,0.921875 -0.9375,1.046875 -1.296875,1.046875 -0.53125,0 -1.40625,-0.421875 -1.40625,-2.03125 z m 0,0"
           id="id-602fa2b5-b5bb-4279-a308-534d57bda224"
           style="fill:#6f1d77;fill-opacity:1;stroke-width:0;stroke-opacity:1" />
      </g>
      <g
         transform="translate(166.424,134.765)"
         style="fill:#6f1d77;fill-opacity:1;stroke-width:0;stroke-opacity:1"
         id="g79">
        <path
           d="m 1.171875,-2.171875 c 0,-1.625 0.8125,-2.046875 1.34375,-2.046875 0.09375,0 0.71875,0.015625 1.0625,0.375 -0.40625,0.03125 -0.46875,0.328125 -0.46875,0.453125 0,0.265625 0.1875,0.453125 0.453125,0.453125 0.265625,0 0.46875,-0.15625 0.46875,-0.46875 0,-0.671875 -0.765625,-1.0625 -1.53125,-1.0625 -1.25,0 -2.15625,1.078125 -2.15625,2.3125 0,1.28125 0.984375,2.265625 2.140625,2.265625 1.328125,0 1.65625,-1.203125 1.65625,-1.296875 0,-0.09375 -0.109375,-0.09375 -0.140625,-0.09375 -0.078125,0 -0.109375,0.03125 -0.125,0.09375 -0.28125,0.921875 -0.9375,1.046875 -1.296875,1.046875 -0.53125,0 -1.40625,-0.421875 -1.40625,-2.03125 z m 0,0"
           id="id-83c43adc-c481-481d-9321-5a223494960b"
           style="fill:#6f1d77;fill-opacity:1;stroke-width:0;stroke-opacity:1" />
      </g>
      <g
         transform="translate(170.851,134.765)"
         style="fill:#6f1d77;fill-opacity:1;stroke-width:0;stroke-opacity:1"
         id="g80">
        <path
           d="M 1.109375,-2.515625 C 1.171875,-4 2.015625,-4.25 2.359375,-4.25 c 1.015625,0 1.125,1.34375 1.125,1.734375 z m 0,0.21875 h 2.78125 c 0.21875,0 0.25,0 0.25,-0.21875 0,-0.984375 -0.546875,-1.953125 -1.78125,-1.953125 -1.15625,0 -2.078125,1.03125 -2.078125,2.28125 0,1.328125 1.046875,2.296875 2.1875,2.296875 C 3.6875,0.109375 4.140625,-1 4.140625,-1.1875 4.140625,-1.28125 4.0625,-1.3125 4,-1.3125 c -0.078125,0 -0.109375,0.0625 -0.125,0.140625 -0.34375,1.03125 -1.25,1.03125 -1.34375,1.03125 -0.5,0 -0.890625,-0.296875 -1.125,-0.671875 -0.296875,-0.46875 -0.296875,-1.125 -0.296875,-1.484375 z m 0,0"
           id="id-03b68f93-652e-4f19-b3a7-c41eb0f02159"
           style="fill:#6f1d77;fill-opacity:1;stroke-width:0;stroke-opacity:1" />
      </g>
      <g
         transform="translate(175.278,134.765)"
         style="fill:#6f1d77;fill-opacity:1;stroke-width:0;stroke-opacity:1"
         id="g81">
        <path
           d="m 2.078125,-1.9375 c 0.21875,0.046875 1.03125,0.203125 1.03125,0.921875 0,0.5 -0.34375,0.90625 -1.125,0.90625 -0.84375,0 -1.203125,-0.5625 -1.390625,-1.421875 C 0.5625,-1.65625 0.5625,-1.6875 0.453125,-1.6875 c -0.125,0 -0.125,0.0625 -0.125,0.234375 V -0.125 c 0,0.171875 0,0.234375 0.109375,0.234375 0.046875,0 0.0625,-0.015625 0.25,-0.203125 0.015625,-0.015625 0.015625,-0.03125 0.203125,-0.21875 0.4375,0.40625 0.890625,0.421875 1.09375,0.421875 1.140625,0 1.609375,-0.671875 1.609375,-1.390625 0,-0.515625 -0.296875,-0.828125 -0.421875,-0.9375 C 2.84375,-2.546875 2.453125,-2.625 2.03125,-2.703125 1.46875,-2.8125 0.8125,-2.9375 0.8125,-3.515625 c 0,-0.359375 0.25,-0.765625 1.109375,-0.765625 1.09375,0 1.15625,0.90625 1.171875,1.203125 0,0.09375 0.09375,0.09375 0.109375,0.09375 0.140625,0 0.140625,-0.046875 0.140625,-0.234375 v -1.015625 c 0,-0.15625 0,-0.234375 -0.109375,-0.234375 -0.046875,0 -0.078125,0 -0.203125,0.125 -0.03125,0.03125 -0.125,0.125 -0.171875,0.15625 -0.375,-0.28125 -0.78125,-0.28125 -0.9375,-0.28125 -1.21875,0 -1.59375,0.671875 -1.59375,1.234375 0,0.34375 0.15625,0.625 0.421875,0.84375 0.328125,0.25 0.609375,0.3125 1.328125,0.453125 z m 0,0"
           id="id-63600a96-3dc1-4d2a-bfb8-cce4f7ce8457"
           style="fill:#6f1d77;fill-opacity:1;stroke-width:0;stroke-opacity:1" />
      </g>
      <g
         transform="translate(179.208,134.765)"
         style="fill:#6f1d77;fill-opacity:1;stroke-width:0;stroke-opacity:1"
         id="g82">
        <path
           d="m 2.078125,-1.9375 c 0.21875,0.046875 1.03125,0.203125 1.03125,0.921875 0,0.5 -0.34375,0.90625 -1.125,0.90625 -0.84375,0 -1.203125,-0.5625 -1.390625,-1.421875 C 0.5625,-1.65625 0.5625,-1.6875 0.453125,-1.6875 c -0.125,0 -0.125,0.0625 -0.125,0.234375 V -0.125 c 0,0.171875 0,0.234375 0.109375,0.234375 0.046875,0 0.0625,-0.015625 0.25,-0.203125 0.015625,-0.015625 0.015625,-0.03125 0.203125,-0.21875 0.4375,0.40625 0.890625,0.421875 1.09375,0.421875 1.140625,0 1.609375,-0.671875 1.609375,-1.390625 0,-0.515625 -0.296875,-0.828125 -0.421875,-0.9375 C 2.84375,-2.546875 2.453125,-2.625 2.03125,-2.703125 1.46875,-2.8125 0.8125,-2.9375 0.8125,-3.515625 c 0,-0.359375 0.25,-0.765625 1.109375,-0.765625 1.09375,0 1.15625,0.90625 1.171875,1.203125 0,0.09375 0.09375,0.09375 0.109375,0.09375 0.140625,0 0.140625,-0.046875 0.140625,-0.234375 v -1.015625 c 0,-0.15625 0,-0.234375 -0.109375,-0.234375 -0.046875,0 -0.078125,0 -0.203125,0.125 -0.03125,0.03125 -0.125,0.125 -0.171875,0.15625 -0.375,-0.28125 -0.78125,-0.28125 -0.9375,-0.28125 -1.21875,0 -1.59375,0.671875 -1.59375,1.234375 0,0.34375 0.15625,0.625 0.421875,0.84375 0.328125,0.25 0.609375,0.3125 1.328125,0.453125 z m 0,0"
           id="id-05d0df83-fd8d-4ded-9dd7-1ef64d22475d"
           style="fill:#6f1d77;fill-opacity:1;stroke-width:0;stroke-opacity:1" />
      </g>
      <g
         transform="translate(183.137,134.765)"
         style="fill:#6f1d77;fill-opacity:1;stroke-width:0;stroke-opacity:1"
         id="g83">
        <path
           d="M 1.765625,-4.40625 0.375,-4.296875 v 0.3125 c 0.640625,0 0.734375,0.0625 0.734375,0.546875 V -0.75 c 0,0.4375 -0.109375,0.4375 -0.78125,0.4375 V 0 C 0.640625,-0.015625 1.1875,-0.03125 1.421875,-0.03125 1.78125,-0.03125 2.125,-0.015625 2.46875,0 v -0.3125 c -0.671875,0 -0.703125,-0.046875 -0.703125,-0.4375 z m 0.03125,-1.734375 c 0,-0.3125 -0.234375,-0.53125 -0.515625,-0.53125 -0.3125,0 -0.53125,0.265625 -0.53125,0.53125 0,0.265625 0.21875,0.53125 0.53125,0.53125 0.28125,0 0.515625,-0.21875 0.515625,-0.53125 z m 0,0"
           id="id-e74eb0fc-e7cb-4ed4-a04f-6a5755a8c761"
           style="fill:#6f1d77;fill-opacity:1;stroke-width:0;stroke-opacity:1" />
      </g>
      <g
         transform="translate(185.904,134.765)"
         style="fill:#6f1d77;fill-opacity:1;stroke-width:0;stroke-opacity:1"
         id="g84">
        <path
           d="m 1.71875,-3.765625 v -3.15625 L 0.28125,-6.8125 V -6.5 c 0.703125,0 0.78125,0.0625 0.78125,0.5625 V 0 h 0.25 c 0,-0.015625 0.078125,-0.15625 0.359375,-0.625 0.140625,0.234375 0.5625,0.734375 1.296875,0.734375 1.1875,0 2.21875,-0.984375 2.21875,-2.265625 0,-1.265625 -0.96875,-2.25 -2.109375,-2.25 -0.78125,0 -1.203125,0.46875 -1.359375,0.640625 z m 0.03125,2.625 V -3.1875 c 0,-0.1875 0,-0.203125 0.109375,-0.359375 C 2.25,-4.109375 2.796875,-4.1875 3.03125,-4.1875 c 0.453125,0 0.8125,0.265625 1.046875,0.640625 0.265625,0.40625 0.28125,0.96875 0.28125,1.390625 0,0.359375 -0.015625,0.953125 -0.296875,1.40625 -0.21875,0.3125 -0.59375,0.640625 -1.125,0.640625 -0.453125,0 -0.8125,-0.234375 -1.046875,-0.609375 C 1.75,-0.921875 1.75,-0.953125 1.75,-1.140625 Z m 0,0"
           id="id-87d498b1-5746-4edf-aef7-a7e7b907fd2e"
           style="fill:#6f1d77;fill-opacity:1;stroke-width:0;stroke-opacity:1" />
      </g>
      <g
         transform="translate(191.44,134.765)"
         style="fill:#6f1d77;fill-opacity:1;stroke-width:0;stroke-opacity:1"
         id="g85">
        <path
           d="M 1.765625,-6.921875 0.328125,-6.8125 V -6.5 c 0.703125,0 0.78125,0.0625 0.78125,0.5625 V -0.75 c 0,0.4375 -0.109375,0.4375 -0.78125,0.4375 V 0 C 0.65625,-0.015625 1.1875,-0.03125 1.4375,-0.03125 c 0.25,0 0.734375,0.015625 1.109375,0.03125 v -0.3125 c -0.671875,0 -0.78125,0 -0.78125,-0.4375 z m 0,0"
           id="id-bf591e14-e5e5-458d-a3ff-95ec9ddfd6ea"
           style="fill:#6f1d77;fill-opacity:1;stroke-width:0;stroke-opacity:1" />
      </g>
      <g
         transform="translate(194.207,134.765)"
         style="fill:#6f1d77;fill-opacity:1;stroke-width:0;stroke-opacity:1"
         id="g86">
        <path
           d="M 1.109375,-2.515625 C 1.171875,-4 2.015625,-4.25 2.359375,-4.25 c 1.015625,0 1.125,1.34375 1.125,1.734375 z m 0,0.21875 h 2.78125 c 0.21875,0 0.25,0 0.25,-0.21875 0,-0.984375 -0.546875,-1.953125 -1.78125,-1.953125 -1.15625,0 -2.078125,1.03125 -2.078125,2.28125 0,1.328125 1.046875,2.296875 2.1875,2.296875 C 3.6875,0.109375 4.140625,-1 4.140625,-1.1875 4.140625,-1.28125 4.0625,-1.3125 4,-1.3125 c -0.078125,0 -0.109375,0.0625 -0.125,0.140625 -0.34375,1.03125 -1.25,1.03125 -1.34375,1.03125 -0.5,0 -0.890625,-0.296875 -1.125,-0.671875 -0.296875,-0.46875 -0.296875,-1.125 -0.296875,-1.484375 z m 0,0"
           id="id-0840ca07-dd64-44c9-ab71-99607e0a364c"
           style="fill:#6f1d77;fill-opacity:1;stroke-width:0;stroke-opacity:1" />
      </g>
    </g>
  </g>
  <path
     style="fill:none;stroke:#6f1d77;stroke-width:0.938976;stroke-linecap:butt;stroke-linejoin:miter;stroke-dasharray:none;stroke-opacity:1;marker-end:url(#marker529)"
     d="M 435.97497,129.55311 497.1543,105.47662"
     id="path87" />
  <g
     transform="matrix(1.24214,-0.484634,0.484634,1.24214,438.55931,134.17993)"
     ns1:version="1.10.2"
     ns1:texconverter="pdflatex"
     ns1:pdfconverter="inkscape"
     ns1:text="$\\text{inaccessible}$"
     ns1:preamble="/home/iuribarcelos/.config/inkscape/extensions/textext/default_packages.tex"
     ns1:scale="1.0"
     ns1:alignment="middle center"
     ns1:stroke-to-path="0"
     ns1:jacobian_sqrt="1.3333348767492734"
     style="fill:#6f1d77;fill-opacity:1;stroke-width:0;stroke-opacity:1"
     id="g110">
    <defs
       id="defs96"
       style="fill:#6f1d77;fill-opacity:1;stroke-width:0;stroke-opacity:1">
      <g
         id="g96"
         style="fill:#6f1d77;fill-opacity:1;stroke-width:0;stroke-opacity:1">
        <g
           id="g88"
           style="fill:#6f1d77;fill-opacity:1;stroke-width:0;stroke-opacity:1">
          <path
             d="M 1.765625,-4.40625 0.375,-4.296875 v 0.3125 c 0.640625,0 0.734375,0.0625 0.734375,0.546875 V -0.75 c 0,0.4375 -0.109375,0.4375 -0.78125,0.4375 V 0 C 0.640625,-0.015625 1.1875,-0.03125 1.421875,-0.03125 1.78125,-0.03125 2.125,-0.015625 2.46875,0 v -0.3125 c -0.671875,0 -0.703125,-0.046875 -0.703125,-0.4375 z m 0.03125,-1.734375 c 0,-0.3125 -0.234375,-0.53125 -0.515625,-0.53125 -0.3125,0 -0.53125,0.265625 -0.53125,0.53125 0,0.265625 0.21875,0.53125 0.53125,0.53125 0.28125,0 0.515625,-0.21875 0.515625,-0.53125 z m 0,0"
             id="path88"
             style="fill:#6f1d77;fill-opacity:1;stroke-width:0;stroke-opacity:1" />
        </g>
        <g
           id="g89"
           style="fill:#6f1d77;fill-opacity:1;stroke-width:0;stroke-opacity:1">
          <path
             d="M 1.09375,-3.421875 V -0.75 c 0,0.4375 -0.109375,0.4375 -0.78125,0.4375 V 0 c 0.359375,-0.015625 0.859375,-0.03125 1.140625,-0.03125 0.25,0 0.765625,0.015625 1.109375,0.03125 v -0.3125 c -0.671875,0 -0.78125,0 -0.78125,-0.4375 V -2.59375 C 1.78125,-3.625 2.5,-4.1875 3.125,-4.1875 c 0.640625,0 0.75,0.53125 0.75,1.109375 V -0.75 c 0,0.4375 -0.109375,0.4375 -0.78125,0.4375 V 0 c 0.34375,-0.015625 0.859375,-0.03125 1.125,-0.03125 0.25,0 0.78125,0.015625 1.109375,0.03125 v -0.3125 c -0.515625,0 -0.765625,0 -0.765625,-0.296875 v -1.90625 c 0,-0.859375 0,-1.15625 -0.3125,-1.515625 -0.140625,-0.171875 -0.46875,-0.375 -1.046875,-0.375 C 2.46875,-4.40625 2,-3.984375 1.71875,-3.359375 V -4.40625 L 0.3125,-4.296875 v 0.3125 c 0.703125,0 0.78125,0.0625 0.78125,0.5625 z m 0,0"
             id="path89"
             style="fill:#6f1d77;fill-opacity:1;stroke-width:0;stroke-opacity:1" />
        </g>
        <g
           id="g90"
           style="fill:#6f1d77;fill-opacity:1;stroke-width:0;stroke-opacity:1">
          <path
             d="m 3.3125,-0.75 c 0.046875,0.390625 0.3125,0.8125 0.78125,0.8125 0.21875,0 0.828125,-0.140625 0.828125,-0.953125 v -0.5625 h -0.25 v 0.5625 c 0,0.578125 -0.25,0.640625 -0.359375,0.640625 -0.328125,0 -0.375,-0.453125 -0.375,-0.5 v -1.984375 c 0,-0.421875 0,-0.8125 -0.359375,-1.1875 C 3.1875,-4.3125 2.6875,-4.46875 2.21875,-4.46875 c -0.828125,0 -1.515625,0.46875 -1.515625,1.125 0,0.296875 0.203125,0.46875 0.46875,0.46875 0.28125,0 0.453125,-0.203125 0.453125,-0.453125 0,-0.125 -0.046875,-0.453125 -0.515625,-0.453125 C 1.390625,-4.140625 1.875,-4.25 2.1875,-4.25 c 0.5,0 1.0625,0.390625 1.0625,1.28125 v 0.359375 c -0.515625,0.03125 -1.203125,0.0625 -1.828125,0.359375 -0.75,0.34375 -1,0.859375 -1,1.296875 0,0.8125 0.96875,1.0625 1.59375,1.0625 0.65625,0 1.109375,-0.40625 1.296875,-0.859375 z M 3.25,-2.390625 v 1 c 0,0.9375 -0.71875,1.28125 -1.171875,1.28125 -0.484375,0 -0.890625,-0.34375 -0.890625,-0.84375 0,-0.546875 0.421875,-1.375 2.0625,-1.4375 z m 0,0"
             id="path90"
             style="fill:#6f1d77;fill-opacity:1;stroke-width:0;stroke-opacity:1" />
        </g>
        <g
           id="g91"
           style="fill:#6f1d77;fill-opacity:1;stroke-width:0;stroke-opacity:1">
          <path
             d="m 1.171875,-2.171875 c 0,-1.625 0.8125,-2.046875 1.34375,-2.046875 0.09375,0 0.71875,0.015625 1.0625,0.375 -0.40625,0.03125 -0.46875,0.328125 -0.46875,0.453125 0,0.265625 0.1875,0.453125 0.453125,0.453125 0.265625,0 0.46875,-0.15625 0.46875,-0.46875 0,-0.671875 -0.765625,-1.0625 -1.53125,-1.0625 -1.25,0 -2.15625,1.078125 -2.15625,2.3125 0,1.28125 0.984375,2.265625 2.140625,2.265625 1.328125,0 1.65625,-1.203125 1.65625,-1.296875 0,-0.09375 -0.109375,-0.09375 -0.140625,-0.09375 -0.078125,0 -0.109375,0.03125 -0.125,0.09375 -0.28125,0.921875 -0.9375,1.046875 -1.296875,1.046875 -0.53125,0 -1.40625,-0.421875 -1.40625,-2.03125 z m 0,0"
             id="path91"
             style="fill:#6f1d77;fill-opacity:1;stroke-width:0;stroke-opacity:1" />
        </g>
        <g
           id="g92"
           style="fill:#6f1d77;fill-opacity:1;stroke-width:0;stroke-opacity:1">
          <path
             d="M 1.109375,-2.515625 C 1.171875,-4 2.015625,-4.25 2.359375,-4.25 c 1.015625,0 1.125,1.34375 1.125,1.734375 z m 0,0.21875 h 2.78125 c 0.21875,0 0.25,0 0.25,-0.21875 0,-0.984375 -0.546875,-1.953125 -1.78125,-1.953125 -1.15625,0 -2.078125,1.03125 -2.078125,2.28125 0,1.328125 1.046875,2.296875 2.1875,2.296875 C 3.6875,0.109375 4.140625,-1 4.140625,-1.1875 4.140625,-1.28125 4.0625,-1.3125 4,-1.3125 c -0.078125,0 -0.109375,0.0625 -0.125,0.140625 -0.34375,1.03125 -1.25,1.03125 -1.34375,1.03125 -0.5,0 -0.890625,-0.296875 -1.125,-0.671875 -0.296875,-0.46875 -0.296875,-1.125 -0.296875,-1.484375 z m 0,0"
             id="path92"
             style="fill:#6f1d77;fill-opacity:1;stroke-width:0;stroke-opacity:1" />
        </g>
        <g
           id="g93"
           style="fill:#6f1d77;fill-opacity:1;stroke-width:0;stroke-opacity:1">
          <path
             d="m 2.078125,-1.9375 c 0.21875,0.046875 1.03125,0.203125 1.03125,0.921875 0,0.5 -0.34375,0.90625 -1.125,0.90625 -0.84375,0 -1.203125,-0.5625 -1.390625,-1.421875 C 0.5625,-1.65625 0.5625,-1.6875 0.453125,-1.6875 c -0.125,0 -0.125,0.0625 -0.125,0.234375 V -0.125 c 0,0.171875 0,0.234375 0.109375,0.234375 0.046875,0 0.0625,-0.015625 0.25,-0.203125 0.015625,-0.015625 0.015625,-0.03125 0.203125,-0.21875 0.4375,0.40625 0.890625,0.421875 1.09375,0.421875 1.140625,0 1.609375,-0.671875 1.609375,-1.390625 0,-0.515625 -0.296875,-0.828125 -0.421875,-0.9375 C 2.84375,-2.546875 2.453125,-2.625 2.03125,-2.703125 1.46875,-2.8125 0.8125,-2.9375 0.8125,-3.515625 c 0,-0.359375 0.25,-0.765625 1.109375,-0.765625 1.09375,0 1.15625,0.90625 1.171875,1.203125 0,0.09375 0.09375,0.09375 0.109375,0.09375 0.140625,0 0.140625,-0.046875 0.140625,-0.234375 v -1.015625 c 0,-0.15625 0,-0.234375 -0.109375,-0.234375 -0.046875,0 -0.078125,0 -0.203125,0.125 -0.03125,0.03125 -0.125,0.125 -0.171875,0.15625 -0.375,-0.28125 -0.78125,-0.28125 -0.9375,-0.28125 -1.21875,0 -1.59375,0.671875 -1.59375,1.234375 0,0.34375 0.15625,0.625 0.421875,0.84375 0.328125,0.25 0.609375,0.3125 1.328125,0.453125 z m 0,0"
             id="path93"
             style="fill:#6f1d77;fill-opacity:1;stroke-width:0;stroke-opacity:1" />
        </g>
        <g
           id="g94"
           style="fill:#6f1d77;fill-opacity:1;stroke-width:0;stroke-opacity:1">
          <path
             d="m 1.71875,-3.765625 v -3.15625 L 0.28125,-6.8125 V -6.5 c 0.703125,0 0.78125,0.0625 0.78125,0.5625 V 0 h 0.25 c 0,-0.015625 0.078125,-0.15625 0.359375,-0.625 0.140625,0.234375 0.5625,0.734375 1.296875,0.734375 1.1875,0 2.21875,-0.984375 2.21875,-2.265625 0,-1.265625 -0.96875,-2.25 -2.109375,-2.25 -0.78125,0 -1.203125,0.46875 -1.359375,0.640625 z m 0.03125,2.625 V -3.1875 c 0,-0.1875 0,-0.203125 0.109375,-0.359375 C 2.25,-4.109375 2.796875,-4.1875 3.03125,-4.1875 c 0.453125,0 0.8125,0.265625 1.046875,0.640625 0.265625,0.40625 0.28125,0.96875 0.28125,1.390625 0,0.359375 -0.015625,0.953125 -0.296875,1.40625 -0.21875,0.3125 -0.59375,0.640625 -1.125,0.640625 -0.453125,0 -0.8125,-0.234375 -1.046875,-0.609375 C 1.75,-0.921875 1.75,-0.953125 1.75,-1.140625 Z m 0,0"
             id="path94"
             style="fill:#6f1d77;fill-opacity:1;stroke-width:0;stroke-opacity:1" />
        </g>
        <g
           id="g95"
           style="fill:#6f1d77;fill-opacity:1;stroke-width:0;stroke-opacity:1">
          <path
             d="M 1.765625,-6.921875 0.328125,-6.8125 V -6.5 c 0.703125,0 0.78125,0.0625 0.78125,0.5625 V -0.75 c 0,0.4375 -0.109375,0.4375 -0.78125,0.4375 V 0 C 0.65625,-0.015625 1.1875,-0.03125 1.4375,-0.03125 c 0.25,0 0.734375,0.015625 1.109375,0.03125 v -0.3125 c -0.671875,0 -0.78125,0 -0.78125,-0.4375 z m 0,0"
             id="path95"
             style="fill:#6f1d77;fill-opacity:1;stroke-width:0;stroke-opacity:1" />
        </g>
      </g>
    </defs>
    <g
       fill-opacity="1"
       id="g109"
       transform="translate(-149.04,-127.843)"
       style="fill:#6f1d77;fill-opacity:1;stroke-width:0;stroke-opacity:1">
      <g
         transform="translate(148.712,134.765)"
         style="fill:#6f1d77;fill-opacity:1;stroke-width:0;stroke-opacity:1"
         id="g97">
        <path
           d="M 1.765625,-4.40625 0.375,-4.296875 v 0.3125 c 0.640625,0 0.734375,0.0625 0.734375,0.546875 V -0.75 c 0,0.4375 -0.109375,0.4375 -0.78125,0.4375 V 0 C 0.640625,-0.015625 1.1875,-0.03125 1.421875,-0.03125 1.78125,-0.03125 2.125,-0.015625 2.46875,0 v -0.3125 c -0.671875,0 -0.703125,-0.046875 -0.703125,-0.4375 z m 0.03125,-1.734375 c 0,-0.3125 -0.234375,-0.53125 -0.515625,-0.53125 -0.3125,0 -0.53125,0.265625 -0.53125,0.53125 0,0.265625 0.21875,0.53125 0.53125,0.53125 0.28125,0 0.515625,-0.21875 0.515625,-0.53125 z m 0,0"
           id="path96"
           style="fill:#6f1d77;fill-opacity:1;stroke-width:0;stroke-opacity:1" />
      </g>
      <g
         transform="translate(151.48,134.765)"
         style="fill:#6f1d77;fill-opacity:1;stroke-width:0;stroke-opacity:1"
         id="g98">
        <path
           d="M 1.09375,-3.421875 V -0.75 c 0,0.4375 -0.109375,0.4375 -0.78125,0.4375 V 0 c 0.359375,-0.015625 0.859375,-0.03125 1.140625,-0.03125 0.25,0 0.765625,0.015625 1.109375,0.03125 v -0.3125 c -0.671875,0 -0.78125,0 -0.78125,-0.4375 V -2.59375 C 1.78125,-3.625 2.5,-4.1875 3.125,-4.1875 c 0.640625,0 0.75,0.53125 0.75,1.109375 V -0.75 c 0,0.4375 -0.109375,0.4375 -0.78125,0.4375 V 0 c 0.34375,-0.015625 0.859375,-0.03125 1.125,-0.03125 0.25,0 0.78125,0.015625 1.109375,0.03125 v -0.3125 c -0.515625,0 -0.765625,0 -0.765625,-0.296875 v -1.90625 c 0,-0.859375 0,-1.15625 -0.3125,-1.515625 -0.140625,-0.171875 -0.46875,-0.375 -1.046875,-0.375 C 2.46875,-4.40625 2,-3.984375 1.71875,-3.359375 V -4.40625 L 0.3125,-4.296875 v 0.3125 c 0.703125,0 0.78125,0.0625 0.78125,0.5625 z m 0,0"
           id="path97"
           style="fill:#6f1d77;fill-opacity:1;stroke-width:0;stroke-opacity:1" />
      </g>
      <g
         transform="translate(157.015,134.765)"
         style="fill:#6f1d77;fill-opacity:1;stroke-width:0;stroke-opacity:1"
         id="g99">
        <path
           d="m 3.3125,-0.75 c 0.046875,0.390625 0.3125,0.8125 0.78125,0.8125 0.21875,0 0.828125,-0.140625 0.828125,-0.953125 v -0.5625 h -0.25 v 0.5625 c 0,0.578125 -0.25,0.640625 -0.359375,0.640625 -0.328125,0 -0.375,-0.453125 -0.375,-0.5 v -1.984375 c 0,-0.421875 0,-0.8125 -0.359375,-1.1875 C 3.1875,-4.3125 2.6875,-4.46875 2.21875,-4.46875 c -0.828125,0 -1.515625,0.46875 -1.515625,1.125 0,0.296875 0.203125,0.46875 0.46875,0.46875 0.28125,0 0.453125,-0.203125 0.453125,-0.453125 0,-0.125 -0.046875,-0.453125 -0.515625,-0.453125 C 1.390625,-4.140625 1.875,-4.25 2.1875,-4.25 c 0.5,0 1.0625,0.390625 1.0625,1.28125 v 0.359375 c -0.515625,0.03125 -1.203125,0.0625 -1.828125,0.359375 -0.75,0.34375 -1,0.859375 -1,1.296875 0,0.8125 0.96875,1.0625 1.59375,1.0625 0.65625,0 1.109375,-0.40625 1.296875,-0.859375 z M 3.25,-2.390625 v 1 c 0,0.9375 -0.71875,1.28125 -1.171875,1.28125 -0.484375,0 -0.890625,-0.34375 -0.890625,-0.84375 0,-0.546875 0.421875,-1.375 2.0625,-1.4375 z m 0,0"
           id="path98"
           style="fill:#6f1d77;fill-opacity:1;stroke-width:0;stroke-opacity:1" />
      </g>
      <g
         transform="translate(161.996,134.765)"
         style="fill:#6f1d77;fill-opacity:1;stroke-width:0;stroke-opacity:1"
         id="g100">
        <path
           d="m 1.171875,-2.171875 c 0,-1.625 0.8125,-2.046875 1.34375,-2.046875 0.09375,0 0.71875,0.015625 1.0625,0.375 -0.40625,0.03125 -0.46875,0.328125 -0.46875,0.453125 0,0.265625 0.1875,0.453125 0.453125,0.453125 0.265625,0 0.46875,-0.15625 0.46875,-0.46875 0,-0.671875 -0.765625,-1.0625 -1.53125,-1.0625 -1.25,0 -2.15625,1.078125 -2.15625,2.3125 0,1.28125 0.984375,2.265625 2.140625,2.265625 1.328125,0 1.65625,-1.203125 1.65625,-1.296875 0,-0.09375 -0.109375,-0.09375 -0.140625,-0.09375 -0.078125,0 -0.109375,0.03125 -0.125,0.09375 -0.28125,0.921875 -0.9375,1.046875 -1.296875,1.046875 -0.53125,0 -1.40625,-0.421875 -1.40625,-2.03125 z m 0,0"
           id="path99"
           style="fill:#6f1d77;fill-opacity:1;stroke-width:0;stroke-opacity:1" />
      </g>
      <g
         transform="translate(166.424,134.765)"
         style="fill:#6f1d77;fill-opacity:1;stroke-width:0;stroke-opacity:1"
         id="g101">
        <path
           d="m 1.171875,-2.171875 c 0,-1.625 0.8125,-2.046875 1.34375,-2.046875 0.09375,0 0.71875,0.015625 1.0625,0.375 -0.40625,0.03125 -0.46875,0.328125 -0.46875,0.453125 0,0.265625 0.1875,0.453125 0.453125,0.453125 0.265625,0 0.46875,-0.15625 0.46875,-0.46875 0,-0.671875 -0.765625,-1.0625 -1.53125,-1.0625 -1.25,0 -2.15625,1.078125 -2.15625,2.3125 0,1.28125 0.984375,2.265625 2.140625,2.265625 1.328125,0 1.65625,-1.203125 1.65625,-1.296875 0,-0.09375 -0.109375,-0.09375 -0.140625,-0.09375 -0.078125,0 -0.109375,0.03125 -0.125,0.09375 -0.28125,0.921875 -0.9375,1.046875 -1.296875,1.046875 -0.53125,0 -1.40625,-0.421875 -1.40625,-2.03125 z m 0,0"
           id="path100"
           style="fill:#6f1d77;fill-opacity:1;stroke-width:0;stroke-opacity:1" />
      </g>
      <g
         transform="translate(170.851,134.765)"
         style="fill:#6f1d77;fill-opacity:1;stroke-width:0;stroke-opacity:1"
         id="g102">
        <path
           d="M 1.109375,-2.515625 C 1.171875,-4 2.015625,-4.25 2.359375,-4.25 c 1.015625,0 1.125,1.34375 1.125,1.734375 z m 0,0.21875 h 2.78125 c 0.21875,0 0.25,0 0.25,-0.21875 0,-0.984375 -0.546875,-1.953125 -1.78125,-1.953125 -1.15625,0 -2.078125,1.03125 -2.078125,2.28125 0,1.328125 1.046875,2.296875 2.1875,2.296875 C 3.6875,0.109375 4.140625,-1 4.140625,-1.1875 4.140625,-1.28125 4.0625,-1.3125 4,-1.3125 c -0.078125,0 -0.109375,0.0625 -0.125,0.140625 -0.34375,1.03125 -1.25,1.03125 -1.34375,1.03125 -0.5,0 -0.890625,-0.296875 -1.125,-0.671875 -0.296875,-0.46875 -0.296875,-1.125 -0.296875,-1.484375 z m 0,0"
           id="path101"
           style="fill:#6f1d77;fill-opacity:1;stroke-width:0;stroke-opacity:1" />
      </g>
      <g
         transform="translate(175.278,134.765)"
         style="fill:#6f1d77;fill-opacity:1;stroke-width:0;stroke-opacity:1"
         id="g103">
        <path
           d="m 2.078125,-1.9375 c 0.21875,0.046875 1.03125,0.203125 1.03125,0.921875 0,0.5 -0.34375,0.90625 -1.125,0.90625 -0.84375,0 -1.203125,-0.5625 -1.390625,-1.421875 C 0.5625,-1.65625 0.5625,-1.6875 0.453125,-1.6875 c -0.125,0 -0.125,0.0625 -0.125,0.234375 V -0.125 c 0,0.171875 0,0.234375 0.109375,0.234375 0.046875,0 0.0625,-0.015625 0.25,-0.203125 0.015625,-0.015625 0.015625,-0.03125 0.203125,-0.21875 0.4375,0.40625 0.890625,0.421875 1.09375,0.421875 1.140625,0 1.609375,-0.671875 1.609375,-1.390625 0,-0.515625 -0.296875,-0.828125 -0.421875,-0.9375 C 2.84375,-2.546875 2.453125,-2.625 2.03125,-2.703125 1.46875,-2.8125 0.8125,-2.9375 0.8125,-3.515625 c 0,-0.359375 0.25,-0.765625 1.109375,-0.765625 1.09375,0 1.15625,0.90625 1.171875,1.203125 0,0.09375 0.09375,0.09375 0.109375,0.09375 0.140625,0 0.140625,-0.046875 0.140625,-0.234375 v -1.015625 c 0,-0.15625 0,-0.234375 -0.109375,-0.234375 -0.046875,0 -0.078125,0 -0.203125,0.125 -0.03125,0.03125 -0.125,0.125 -0.171875,0.15625 -0.375,-0.28125 -0.78125,-0.28125 -0.9375,-0.28125 -1.21875,0 -1.59375,0.671875 -1.59375,1.234375 0,0.34375 0.15625,0.625 0.421875,0.84375 0.328125,0.25 0.609375,0.3125 1.328125,0.453125 z m 0,0"
           id="path102"
           style="fill:#6f1d77;fill-opacity:1;stroke-width:0;stroke-opacity:1" />
      </g>
      <g
         transform="translate(179.208,134.765)"
         style="fill:#6f1d77;fill-opacity:1;stroke-width:0;stroke-opacity:1"
         id="g104">
        <path
           d="m 2.078125,-1.9375 c 0.21875,0.046875 1.03125,0.203125 1.03125,0.921875 0,0.5 -0.34375,0.90625 -1.125,0.90625 -0.84375,0 -1.203125,-0.5625 -1.390625,-1.421875 C 0.5625,-1.65625 0.5625,-1.6875 0.453125,-1.6875 c -0.125,0 -0.125,0.0625 -0.125,0.234375 V -0.125 c 0,0.171875 0,0.234375 0.109375,0.234375 0.046875,0 0.0625,-0.015625 0.25,-0.203125 0.015625,-0.015625 0.015625,-0.03125 0.203125,-0.21875 0.4375,0.40625 0.890625,0.421875 1.09375,0.421875 1.140625,0 1.609375,-0.671875 1.609375,-1.390625 0,-0.515625 -0.296875,-0.828125 -0.421875,-0.9375 C 2.84375,-2.546875 2.453125,-2.625 2.03125,-2.703125 1.46875,-2.8125 0.8125,-2.9375 0.8125,-3.515625 c 0,-0.359375 0.25,-0.765625 1.109375,-0.765625 1.09375,0 1.15625,0.90625 1.171875,1.203125 0,0.09375 0.09375,0.09375 0.109375,0.09375 0.140625,0 0.140625,-0.046875 0.140625,-0.234375 v -1.015625 c 0,-0.15625 0,-0.234375 -0.109375,-0.234375 -0.046875,0 -0.078125,0 -0.203125,0.125 -0.03125,0.03125 -0.125,0.125 -0.171875,0.15625 -0.375,-0.28125 -0.78125,-0.28125 -0.9375,-0.28125 -1.21875,0 -1.59375,0.671875 -1.59375,1.234375 0,0.34375 0.15625,0.625 0.421875,0.84375 0.328125,0.25 0.609375,0.3125 1.328125,0.453125 z m 0,0"
           id="path103"
           style="fill:#6f1d77;fill-opacity:1;stroke-width:0;stroke-opacity:1" />
      </g>
      <g
         transform="translate(183.137,134.765)"
         style="fill:#6f1d77;fill-opacity:1;stroke-width:0;stroke-opacity:1"
         id="g105">
        <path
           d="M 1.765625,-4.40625 0.375,-4.296875 v 0.3125 c 0.640625,0 0.734375,0.0625 0.734375,0.546875 V -0.75 c 0,0.4375 -0.109375,0.4375 -0.78125,0.4375 V 0 C 0.640625,-0.015625 1.1875,-0.03125 1.421875,-0.03125 1.78125,-0.03125 2.125,-0.015625 2.46875,0 v -0.3125 c -0.671875,0 -0.703125,-0.046875 -0.703125,-0.4375 z m 0.03125,-1.734375 c 0,-0.3125 -0.234375,-0.53125 -0.515625,-0.53125 -0.3125,0 -0.53125,0.265625 -0.53125,0.53125 0,0.265625 0.21875,0.53125 0.53125,0.53125 0.28125,0 0.515625,-0.21875 0.515625,-0.53125 z m 0,0"
           id="path104"
           style="fill:#6f1d77;fill-opacity:1;stroke-width:0;stroke-opacity:1" />
      </g>
      <g
         transform="translate(185.904,134.765)"
         style="fill:#6f1d77;fill-opacity:1;stroke-width:0;stroke-opacity:1"
         id="g106">
        <path
           d="m 1.71875,-3.765625 v -3.15625 L 0.28125,-6.8125 V -6.5 c 0.703125,0 0.78125,0.0625 0.78125,0.5625 V 0 h 0.25 c 0,-0.015625 0.078125,-0.15625 0.359375,-0.625 0.140625,0.234375 0.5625,0.734375 1.296875,0.734375 1.1875,0 2.21875,-0.984375 2.21875,-2.265625 0,-1.265625 -0.96875,-2.25 -2.109375,-2.25 -0.78125,0 -1.203125,0.46875 -1.359375,0.640625 z m 0.03125,2.625 V -3.1875 c 0,-0.1875 0,-0.203125 0.109375,-0.359375 C 2.25,-4.109375 2.796875,-4.1875 3.03125,-4.1875 c 0.453125,0 0.8125,0.265625 1.046875,0.640625 0.265625,0.40625 0.28125,0.96875 0.28125,1.390625 0,0.359375 -0.015625,0.953125 -0.296875,1.40625 -0.21875,0.3125 -0.59375,0.640625 -1.125,0.640625 -0.453125,0 -0.8125,-0.234375 -1.046875,-0.609375 C 1.75,-0.921875 1.75,-0.953125 1.75,-1.140625 Z m 0,0"
           id="path105"
           style="fill:#6f1d77;fill-opacity:1;stroke-width:0;stroke-opacity:1" />
      </g>
      <g
         transform="translate(191.44,134.765)"
         style="fill:#6f1d77;fill-opacity:1;stroke-width:0;stroke-opacity:1"
         id="g107">
        <path
           d="M 1.765625,-6.921875 0.328125,-6.8125 V -6.5 c 0.703125,0 0.78125,0.0625 0.78125,0.5625 V -0.75 c 0,0.4375 -0.109375,0.4375 -0.78125,0.4375 V 0 C 0.65625,-0.015625 1.1875,-0.03125 1.4375,-0.03125 c 0.25,0 0.734375,0.015625 1.109375,0.03125 v -0.3125 c -0.671875,0 -0.78125,0 -0.78125,-0.4375 z m 0,0"
           id="path106"
           style="fill:#6f1d77;fill-opacity:1;stroke-width:0;stroke-opacity:1" />
      </g>
      <g
         transform="translate(194.207,134.765)"
         style="fill:#6f1d77;fill-opacity:1;stroke-width:0;stroke-opacity:1"
         id="g108">
        <path
           d="M 1.109375,-2.515625 C 1.171875,-4 2.015625,-4.25 2.359375,-4.25 c 1.015625,0 1.125,1.34375 1.125,1.734375 z m 0,0.21875 h 2.78125 c 0.21875,0 0.25,0 0.25,-0.21875 0,-0.984375 -0.546875,-1.953125 -1.78125,-1.953125 -1.15625,0 -2.078125,1.03125 -2.078125,2.28125 0,1.328125 1.046875,2.296875 2.1875,2.296875 C 3.6875,0.109375 4.140625,-1 4.140625,-1.1875 4.140625,-1.28125 4.0625,-1.3125 4,-1.3125 c -0.078125,0 -0.109375,0.0625 -0.125,0.140625 -0.34375,1.03125 -1.25,1.03125 -1.34375,1.03125 -0.5,0 -0.890625,-0.296875 -1.125,-0.671875 -0.296875,-0.46875 -0.296875,-1.125 -0.296875,-1.484375 z m 0,0"
           id="path107"
           style="fill:#6f1d77;fill-opacity:1;stroke-width:0;stroke-opacity:1" />
      </g>
    </g>
  </g>
</svg>
